<svg width="44" height="33" viewBox="0 0 44 33" fill="none" xmlns="http://www.w3.org/2000/svg">
<mask id="mask0_33_61" style="mask-type:luminance" maskUnits="userSpaceOnUse" x="0" y="0" width="44" height="33">
<path d="M0.777496 0.448364H43.7775V32.3786H0.777496V0.448364Z" fill="white"/>
</mask>
<g mask="url(#mask0_33_61)">
<path d="M41.7625 1.98824H16.4547L14.83 0.491219H4.02734L0.778076 3.48495V32.3362H35.9746L43.7777 25.1475V5.05661H41.762L41.7625 1.98824ZM20.2314 28.6146H12.9604V19.844H17.2335V19.8428L17.2348 19.844H17.99L20.2314 21.8931L20.2314 28.6146ZM20.2314 18.0108H12.9604V9.24018H17.2335V9.23896L17.2348 9.24018H17.99L20.2314 11.2893L20.2314 18.0108ZM31.5957 28.6146H24.3247V19.844H28.5978V19.8428L28.5991 19.844H29.3543L31.5957 21.8931L31.5957 28.6146ZM31.5957 18.0108H24.3247V9.24018H28.5978V9.23896L28.5991 9.24018H29.3543L31.5957 11.2893L31.5957 18.0108ZM40.4191 5.05701H19.7859L17.7985 3.22692H40.4196L40.4191 5.05701Z" fill="black"/>
</g>
</svg>
