<svg width="55" height="44" viewBox="0 0 55 44" fill="none" xmlns="http://www.w3.org/2000/svg">
<path d="M27.708 2.01695H27.401C21.1066 2.01695 15.9977 6.17985 15.9977 11.3085V14.8554H14.9348C12.2573 14.8554 10.0705 16.6205 10.0705 18.8186V27.7277C10.0709 35.5877 17.9188 41.9822 27.5646 41.9822C37.1903 41.9822 45.0387 35.5879 45.0387 27.7277V18.8186C45.0387 16.6205 42.8519 14.8554 40.1743 14.8554H39.1114L39.1118 11.3085C39.1118 6.17942 34.0028 2.01695 27.7086 2.01695H27.708ZM20.085 11.3085C20.085 8.01135 23.3545 5.34694 27.401 5.34694H27.708C31.7545 5.34694 35.024 8.01135 35.024 11.3085V14.8387H20.0854L20.085 11.3085ZM21.1067 27.9108C20.5794 28.941 18.8564 29.324 17.7754 28.4435C16.9984 27.8745 16.9617 26.6919 17.7754 26.0957C18.5816 25.3666 20.1179 25.5475 20.6568 26.0957C21.3151 26.6318 21.3683 27.3975 21.1067 27.9108ZM28.9955 28.4435C28.2951 29.0773 26.842 29.1038 26.1141 28.4435C25.3346 27.8725 25.3029 26.6902 26.1141 26.0957C26.6216 25.5764 28.0883 25.3243 28.9955 26.0957C29.8895 26.8238 29.6938 27.9319 28.9955 28.4435ZM37.3337 28.4435C36.6379 29.0729 35.2667 29.1079 34.4519 28.4435C33.7033 27.894 33.5694 26.8151 34.4519 26.0957C35.2186 25.4025 36.7463 25.4978 37.3337 26.0957C38.2314 26.8285 38.0271 27.9346 37.3337 28.4435Z" fill="black"/>
</svg>
