<svg width="47" height="42" viewBox="0 0 47 42" fill="none" xmlns="http://www.w3.org/2000/svg">
<mask id="mask0_33_51" style="mask-type:luminance" maskUnits="userSpaceOnUse" x="0" y="0" width="47" height="42">
<path d="M0.921906 0H46.9271V41.2562H0.921906V0Z" fill="white"/>
</mask>
<g mask="url(#mask0_33_51)">
<path d="M-96.2404 -43.8341C-93.9369 -46.5415 -89.8774 -48.9461 -82.7289 -48.4883L-79.0253 -48.2497L-82.329 -49.7064C-82.6771 -49.8548 -90.8698 -53.4064 -96.3213 -50.2092C-98.2474 -49.0811 -99.5507 -47.2631 -100.247 -44.788C-100.929 -46.6637 -102.047 -47.9531 -103.588 -48.6172C-107.447 -50.2867 -112.358 -47.3988 -112.566 -47.2763L-115.618 -45.4585L-111.996 -46.103C-105.107 -47.3537 -102.366 -43.5696 -101.381 -41.5906L-101.381 -41.5909C-101.868 -42.2485 -102.476 -42.832 -103.181 -43.3186C-108.366 -46.8577 -116.819 -43.847 -117.181 -43.7117L-120.596 -42.4741H-116.892C-107.432 -42.4741 -103.751 -37.8199 -102.322 -34.2353C-105.285 -34.1192 -109.989 -33.6874 -110.418 -32.1468V-21.4203H-110.418C-110.422 -19.858 -109.718 -18.3572 -108.459 -17.2433C-107.2 -16.1295 -105.487 -15.4926 -103.692 -15.4706H-96.7294C-94.9225 -15.484 -93.1956 -16.1209 -91.9279 -17.2411C-90.6601 -18.3617 -89.9548 -19.8736 -89.9665 -21.4462V-32.1728C-90.3889 -33.6941 -94.9886 -34.1068 -97.959 -34.2613C-96.5295 -37.8455 -92.8553 -42.5001 -83.3739 -42.5001H-79.6703L-83.085 -43.7377C-83.4628 -43.8343 -91.048 -46.5612 -96.2408 -43.8343L-96.2404 -43.8341ZM-95.4997 -49.1392V-49.1396C-94.1096 -49.9162 -92.4845 -50.3135 -90.833 -50.2806C-89.4385 -50.2627 -88.052 -50.0915 -86.7071 -49.7713C-89.4635 -49.574 -92.1019 -48.7116 -94.3264 -47.2814C-96.551 -45.8513 -98.273 -43.9096 -99.2997 -41.6746C-99.0328 -45.3299 -97.7588 -47.8438 -95.5071 -49.1716L-95.4997 -49.1392ZM-108.218 -47.6051H-108.218C-106.918 -47.9791 -105.507 -47.9285 -104.247 -47.4634C-102.961 -46.8176 -102.035 -45.7412 -101.684 -44.4854C-103.264 -46.2837 -105.635 -47.4267 -108.225 -47.6374L-108.218 -47.6051ZM-112.825 -43.4538C-110.137 -43.892 -106.589 -44.0081 -104.092 -42.3C-101.959 -40.8302 -100.907 -38.2452 -100.944 -34.5644C-101.772 -36.8688 -103.323 -38.9256 -105.424 -40.5023C-107.525 -42.079 -110.092 -43.1125 -112.832 -43.4861L-112.825 -43.4538ZM-101.455 -30.8446H-104.351L-104.766 -30.8833H-104.988L-105.403 -30.9348H-105.589L-105.989 -30.9927H-106.144L-106.544 -31.0573H-106.662L-107.048 -31.1284H-107.137L-107.499 -31.2058H-107.566L-107.899 -31.2896H-107.944L-108.247 -31.3798H-108.284L-108.529 -31.47L-108.714 -31.5538H-108.796C-108.129 -31.9213 -105.766 -32.4757 -101.848 -32.5982H-101.847C-101.68 -32.0314 -101.551 -31.4566 -101.462 -30.8769L-101.455 -30.8446ZM-101.603 -17.2495H-101.602C-103.41 -17.2649 -105.137 -17.903 -106.404 -19.0242C-107.672 -20.1457 -108.377 -21.6587 -108.365 -23.2315C-108.365 -23.5876 -108.034 -23.8761 -107.625 -23.8761C-107.428 -23.8761 -107.24 -23.8083 -107.101 -23.6874C-106.962 -23.5664 -106.884 -23.4027 -106.884 -23.2315C-106.896 -22.0007 -106.347 -20.8155 -105.357 -19.9359C-104.367 -19.0565 -103.017 -18.554 -101.603 -18.5387C-101.406 -18.5387 -101.218 -18.4709 -101.079 -18.3499C-100.94 -18.229 -100.862 -18.0649 -100.862 -17.8941C-100.882 -17.5483 -101.212 -17.2777 -101.61 -17.2819L-101.603 -17.2495ZM-91.573 -31.9149L-91.6619 -31.8698L-91.788 -31.8119L-91.9063 -31.7668L-92.0618 -31.7089L-92.2026 -31.6638L-92.3805 -31.6123L-92.551 -31.5672L-92.7583 -31.5157L-92.951 -31.4706L-93.1807 -31.4191L-93.3953 -31.374L-93.6545 -31.3289L-93.8916 -31.2902L-94.1731 -31.2451L-94.4322 -31.2064L-94.7359 -31.1677L-95.0101 -31.129L-95.3435 -31.0903H-95.6324L-95.9952 -31.0516H-98.81L-98.8096 -31.0509C-98.724 -31.7591 -98.5828 -32.4613 -98.3873 -33.1525C-94.565 -32.8752 -92.2467 -32.3145 -91.5799 -31.9469L-91.573 -31.9149ZM-99.3507 -34.5709C-99.3878 -38.2389 -98.3358 -40.8303 -96.2025 -42.3065L-96.2021 -42.3061C-94.598 -43.3118 -92.6514 -43.8182 -90.676 -43.7437C-89.602 -43.737 -88.5309 -43.6442 -87.4763 -43.4667C-90.2073 -43.096 -92.766 -42.0701 -94.8649 -40.5046C-96.9633 -38.9388 -98.5192 -36.8951 -99.3576 -34.6029L-99.3507 -34.5709ZM-23.684 -37.7744C-23.684 -38.5092 -24.5879 -38.9541 -26.8323 -39.3085V-46.7089L-28.8991 -51.3243L-30.9284 -46.7089V-39.7339L-32.047 -39.805V-49.7323C-32.047 -50.8346 -32.7876 -51.705 -33.8024 -51.705H-34.4174C-35.3952 -51.705 -36.1655 -50.8346 -36.1655 -49.7323V-39.9278H-37.484V-46.0387C-37.484 -47.1474 -38.2247 -48.0114 -39.2468 -48.0114H-39.8541C-40.8392 -48.0114 -41.6096 -47.1477 -41.6096 -46.0387V-39.8568L-43.0316 -39.7922L-43.032 -46.7092L-45.0838 -51.3311L-47.1507 -46.7092V-39.4701C-50.7135 -39.0447 -51.4766 -38.4839 -51.4766 -37.7748C-51.474 -37.6471 -51.4384 -37.5214 -51.373 -37.4072L-50.0471 -18.333C-49.9817 -17.5233 -49.5678 -16.7652 -48.8882 -16.2093C-48.2086 -15.6536 -47.3128 -15.3417 -46.3803 -15.3357H-28.7502C-27.8103 -15.3338 -26.9043 -15.6431 -26.2165 -16.2009C-25.5288 -16.7585 -25.1105 -17.5232 -25.0465 -18.3396L-23.7872 -37.3885C-23.7185 -37.5084 -23.6828 -37.6409 -23.6836 -37.7752L-23.684 -37.7744ZM-44.5436 -46.1549V-37.13L-45.099 -37.1751H-45.21L-45.6988 -37.2202L-45.6992 -46.1804L-44.5436 -46.1549ZM-28.3136 -45.955V-37.3231L-29.4766 -37.2006V-45.9807L-28.3136 -45.955ZM-25.7437 -37.7747C-25.9289 -37.7296 -26.166 -37.6717 -26.4843 -37.6135H-26.5214L-26.825 -37.562V-38.0002C-26.3806 -37.9164 -26.0248 -37.8457 -25.7437 -37.7747ZM-30.9289 -38.4193V-37.0915H-31.2549L-32.0474 -37.0464V-38.5098L-30.9289 -38.4193ZM-34.4178 -50.3963H-33.8176C-33.6055 -50.2194 -33.4989 -49.9673 -33.5287 -49.713V-36.9687L-34.6843 -36.93L-34.6839 -49.7325C-34.713 -49.9784 -34.6277 -50.2244 -34.4472 -50.4157L-34.4178 -50.3963ZM-36.166 -38.6191V-36.8914H-37.4845L-37.4841 -38.677L-36.166 -38.6191ZM-39.8696 -46.7155H-39.2767C-39.0602 -46.5408 -38.9503 -46.2878 -38.9804 -46.0322V-36.8976H-40.1434V-46.0519C-40.1731 -46.3014 -40.0787 -46.5499 -39.8839 -46.7351L-39.8696 -46.7155ZM-41.6251 -38.5609V-36.9622H-43.0545V-38.4384L-41.6251 -38.5609ZM-47.1658 -38.1482L-47.1654 -37.3879H-47.2915C-47.4396 -37.3879 -47.5878 -37.4266 -47.7432 -37.4525L-48.195 -37.5171L-48.6765 -37.6009C-48.9728 -37.6588 -49.2098 -37.717 -49.4172 -37.7621L-49.4175 -37.7618C-48.6835 -37.9422 -47.9359 -38.0782 -47.1805 -38.1677L-47.1658 -38.1482ZM-42.7804 -17.2691H-44.1878C-45.1203 -17.2752 -46.0161 -17.5874 -46.6957 -18.143C-47.3753 -18.6987 -47.7892 -19.4571 -47.8542 -20.2667L-47.9656 -21.9816C-47.9777 -22.1524 -47.9112 -22.3206 -47.7803 -22.4489C-47.6498 -22.5772 -47.4657 -22.6549 -47.269 -22.6648C-47.0728 -22.6754 -46.8794 -22.6175 -46.732 -22.5036C-46.5846 -22.39 -46.4953 -22.2298 -46.4839 -22.0586L-46.3656 -20.3505C-46.3244 -19.8627 -46.0722 -19.4066 -45.6598 -19.0739C-45.2474 -18.7412 -44.7056 -18.5573 -44.1433 -18.5586H-42.7804C-42.5841 -18.5586 -42.3955 -18.4904 -42.2566 -18.3695C-42.1176 -18.2489 -42.0397 -18.0848 -42.0397 -17.9137C-42.0397 -17.7429 -42.1176 -17.5788 -42.2566 -17.4579C-42.3955 -17.3373 -42.5841 -17.2691 -42.7804 -17.2691ZM-30.8178 -24.5793C-31.2603 -24.2214 -31.8083 -23.9776 -32.4009 -23.8753C-32.9934 -23.7729 -33.6072 -23.8158 -34.1733 -23.999C-34.4787 -24.0768 -34.7779 -24.1715 -35.0694 -24.2828C-34.9393 -24.0301 -34.8305 -23.7694 -34.7438 -23.5029C-34.5328 -23.0113 -34.4831 -22.478 -34.6011 -21.9633C-34.7188 -21.4486 -34.9988 -20.9726 -35.4102 -20.5892C-36.0027 -20.0847 -36.8039 -19.8103 -37.6325 -19.8285C-38.4606 -19.8119 -39.2615 -20.086 -39.8548 -20.5892C-40.2661 -20.9727 -40.5462 -21.4487 -40.6641 -21.9633C-40.7818 -22.478 -40.7325 -23.0113 -40.5215 -23.5029C-40.4344 -23.7694 -40.3256 -24.0301 -40.1955 -24.2828C-40.4862 -24.1705 -40.7858 -24.0758 -41.0916 -23.999C-41.6581 -23.8158 -42.2715 -23.7729 -42.8641 -23.8753C-43.4566 -23.9776 -44.0046 -24.2214 -44.4472 -24.5793C-45.0081 -25.0921 -45.3205 -25.7731 -45.3205 -26.481C-45.3205 -27.1889 -45.0081 -27.8696 -44.4472 -28.3827C-44.0057 -28.7419 -43.4572 -28.9863 -42.8644 -29.089C-42.2715 -29.1913 -41.6577 -29.1478 -41.0916 -28.9629C-40.7851 -28.8916 -40.4851 -28.7989 -40.1955 -28.6856C-40.3256 -28.9383 -40.4344 -29.199 -40.5215 -29.4658C-40.7325 -29.9571 -40.7818 -30.4904 -40.6641 -31.005C-40.5462 -31.5197 -40.2661 -31.9957 -39.8548 -32.3792C-39.2652 -32.8673 -38.483 -33.1392 -37.6695 -33.1392C-36.8561 -33.1392 -36.0735 -32.8673 -35.4843 -32.3792C-35.073 -31.9957 -34.7929 -31.5197 -34.6749 -31.005C-34.5573 -30.4904 -34.6066 -29.9571 -34.8175 -29.4658C-34.9043 -29.199 -35.0134 -28.9383 -35.1436 -28.6856C-34.8532 -28.7979 -34.5536 -28.8903 -34.2474 -28.9629C-33.6814 -29.1478 -33.0675 -29.1913 -32.4746 -29.089C-31.8817 -28.9863 -31.3333 -28.7419 -30.8915 -28.3827C-30.3211 -27.8782 -29.995 -27.2017 -29.9811 -26.4939C-29.9675 -25.786 -30.2667 -25.1004 -30.8176 -24.5794L-30.8178 -24.5793ZM-36.1732 -23.1613C-36.0438 -22.8875 -36.0016 -22.5887 -36.0512 -22.2961C-36.1008 -22.0031 -36.2401 -21.7277 -36.4548 -21.498C-36.7676 -21.2526 -37.1741 -21.1167 -37.5953 -21.1167C-38.0169 -21.1167 -38.4231 -21.2527 -38.7363 -21.498C-38.9509 -21.7277 -39.0902 -22.0031 -39.1399 -22.2961C-39.1891 -22.5888 -39.1472 -22.8875 -39.0178 -23.1613C-38.715 -23.9821 -38.232 -24.7437 -37.5954 -25.4046C-36.9562 -24.7457 -36.4727 -23.9831 -36.1732 -23.1613ZM-39.0178 -29.8074C-39.1464 -30.0809 -39.188 -30.3796 -39.1384 -30.6723C-39.0891 -30.965 -38.9502 -31.2404 -38.7362 -31.4704C-38.4267 -31.7205 -38.018 -31.8568 -37.5953 -31.8507C-37.173 -31.8568 -36.7642 -31.7205 -36.4548 -31.4704C-36.2408 -31.2404 -36.1019 -30.965 -36.0523 -30.6723C-36.003 -30.3796 -36.0445 -30.0808 -36.1732 -29.8074C-36.4728 -28.9853 -36.9561 -28.2227 -37.5953 -27.5641C-38.2319 -28.2246 -38.7149 -28.9865 -39.0178 -29.8074ZM-38.8325 -26.481C-39.5971 -25.9305 -40.4741 -25.5105 -41.4177 -25.2434C-41.7312 -25.1299 -42.0742 -25.0934 -42.4098 -25.1378C-42.7453 -25.1823 -43.0607 -25.3055 -43.3213 -25.4948C-43.6047 -25.7654 -43.7613 -26.1183 -43.7613 -26.4842C-43.7613 -26.8501 -43.6047 -27.203 -43.3213 -27.4736C-43.0273 -27.7177 -42.631 -27.8459 -42.2253 -27.8283C-41.9518 -27.8264 -41.6802 -27.7919 -41.4177 -27.725C-40.4727 -27.4576 -39.5953 -27.0353 -38.8325 -26.481ZM-31.8697 -27.4736C-31.5863 -27.2029 -31.4294 -26.8501 -31.4294 -26.4842C-31.4294 -26.1183 -31.5863 -25.7654 -31.8697 -25.4948C-32.1303 -25.3054 -32.4457 -25.1823 -32.7813 -25.1378C-33.1165 -25.0934 -33.4598 -25.1298 -33.7733 -25.2434C-34.7169 -25.5105 -35.5939 -25.9305 -36.3585 -26.481C-35.595 -27.0331 -34.7176 -27.4531 -33.7733 -27.7185C-33.4602 -27.8315 -33.1176 -27.8682 -32.7824 -27.8251C-32.4472 -27.7819 -32.1318 -27.6604 -31.8697 -27.4736ZM24.6264 -33.7009L12.8483 -41.6105H36.4037L24.6264 -33.7009ZM24.6264 -31.8056L37.7888 -40.6496V-25.4298H11.4631V-40.6496L24.6264 -31.8056ZM5.95279 -36.9627L11.012 -33.5202L5.95242 -30.0457V-32.8757H2.36015V-34.1651H5.95242L5.95279 -36.9627ZM24.6264 -24.9857L28.2117 -20.1252H25.3672V-16.6507H23.8855V-20.1252H21.0412L24.6264 -24.9857ZM24.6264 -42.0554L21.0411 -46.9159L23.8854 -46.9155V-50.3901H25.3671V-46.9155H28.2338L24.6264 -42.0554ZM46.8927 -34.165V-32.8756H43.3001V-30.0652L38.2408 -33.5201L43.3001 -36.9947V-34.165H46.8927ZM-104.218 28.7957V29.2791H-113.263V28.7957V28.7961C-113.265 27.7469 -112.784 26.7408 -111.929 26.002C-111.072 25.2634 -109.913 24.8533 -108.707 24.8639C-107.515 24.8639 -106.371 25.2762 -105.528 26.01C-104.685 26.7438 -104.211 27.7389 -104.211 28.7766L-104.218 28.7957ZM-110.189 20.5062C-110.189 20.1642 -110.033 19.8364 -109.755 19.5945C-109.477 19.3527 -109.1 19.2167 -108.707 19.2167C-108.314 19.2167 -107.937 19.3527 -107.66 19.5945C-107.382 19.8363 -107.226 20.1642 -107.226 20.5062C-107.226 20.8481 -107.382 21.176 -107.66 21.4178C-107.937 21.6597 -108.314 21.7953 -108.707 21.7953C-109.1 21.7953 -109.477 21.6597 -109.755 21.4178C-110.033 21.176 -110.189 20.8481 -110.189 20.5062ZM-87.4041 8.52917C-87.4022 8.20578 -87.5478 7.8955 -87.8088 7.6655C-88.0701 7.43583 -88.4252 7.30596 -88.7968 7.30435H-113.419H-113.419C-113.79 7.30595 -114.146 7.43583 -114.407 7.6655C-114.668 7.89549 -114.813 8.20577 -114.812 8.52917V13.248H-87.4039L-87.4041 8.52917ZM-90.9302 11.5396H-104.019C-104.428 11.5396 -104.76 11.251 -104.76 10.895C-104.76 10.539 -104.428 10.2501 -104.019 10.2501H-90.9302C-90.7335 10.2501 -90.545 10.3183 -90.4064 10.4392C-90.2675 10.5598 -90.1892 10.7239 -90.1892 10.895C-90.1892 11.0658 -90.2675 11.2299 -90.4064 11.3508C-90.545 11.4714 -90.7335 11.5396 -90.9302 11.5396ZM-82.7819 14.5371H-116.856C-117.252 14.5454 -117.629 14.6884 -117.905 14.9353C-118.182 15.1823 -118.337 15.5133 -118.337 15.8585V32.6186C-118.337 32.9605 -118.181 33.2884 -117.903 33.5302C-117.625 33.7721 -117.248 33.908 -116.856 33.908H-82.7819C-82.3889 33.908 -82.0122 33.7721 -81.7343 33.5302C-81.4564 33.2884 -81.3002 32.9605 -81.3002 32.6186V15.8585C-81.3002 15.5133 -81.4553 15.1822 -81.7321 14.9353C-82.0088 14.6884 -82.3856 14.5454 -82.7818 14.5371H-82.7819ZM-108.708 17.947C-107.922 17.947 -107.168 18.2189 -106.612 18.7022C-106.057 19.1859 -105.745 19.8416 -105.745 20.5256C-105.745 21.2095 -106.057 21.8652 -106.612 22.3489C-107.168 22.8326 -107.922 23.1041 -108.708 23.1041C-109.494 23.1041 -110.247 22.8326 -110.803 22.3489C-111.359 21.8652 -111.671 21.2095 -111.671 20.5256C-111.671 19.8417 -111.359 19.186 -110.803 18.7022C-110.247 18.2189 -109.494 17.947 -108.708 17.947ZM-102.708 29.9055V29.9052C-102.708 30.076 -102.786 30.2401 -102.925 30.361C-103.064 30.4819 -103.252 30.5497 -103.448 30.5497H-113.974C-114.383 30.5497 -114.715 30.2612 -114.715 29.9052V28.777C-114.711 27.3974 -114.079 26.075 -112.957 25.1C-111.835 24.1251 -110.315 23.5768 -108.73 23.5749C-107.138 23.5682 -105.608 24.1126 -104.478 25.0888C-103.348 26.0648 -102.711 27.3916 -102.707 28.777L-102.708 29.9055ZM-84.5969 31.0401H-98.9373V31.0397C-99.3464 31.0397 -99.678 30.7509 -99.678 30.3949C-99.678 30.0388 -99.3464 29.7503 -98.9373 29.7503H-84.5969C-84.4006 29.7503 -84.212 29.8185 -84.0731 29.9391C-83.9341 30.06 -83.8562 30.2241 -83.8562 30.3949C-83.8562 30.5695 -83.9371 30.7365 -84.0808 30.8577C-84.2249 30.9793 -84.419 31.0449 -84.6193 31.0397L-84.5969 31.0401ZM-84.5969 26.9402H-98.9373V26.9399C-99.3464 26.9399 -99.678 26.6514 -99.678 26.2954C-99.678 25.9393 -99.3464 25.6505 -98.9373 25.6505H-84.5969C-84.4006 25.6505 -84.212 25.7186 -84.0731 25.8395C-83.9341 25.9605 -83.8562 26.1242 -83.8562 26.2954C-83.8562 26.4697 -83.9371 26.6367 -84.0808 26.7579C-84.2249 26.8795 -84.419 26.945 -84.6193 26.9399L-84.5969 26.9402ZM-84.5969 22.8468H-98.9373V22.8465C-99.3464 22.8465 -99.678 22.558 -99.678 22.2019C-99.678 21.8459 -99.3464 21.5574 -98.9373 21.5574H-84.5969C-84.4006 21.5574 -84.212 21.6252 -84.0731 21.7461C-83.9341 21.867 -83.8562 22.0308 -83.8562 22.2019C-83.8562 22.3763 -83.9371 22.5432 -84.0808 22.6648C-84.2249 22.786 -84.419 22.8516 -84.6193 22.8465L-84.5969 22.8468ZM-84.5969 18.747H-98.9373V18.7466C-99.3464 18.7466 -99.678 18.4581 -99.678 18.1021C-99.678 17.7461 -99.3464 17.4575 -98.9373 17.4575H-84.5969C-84.4006 17.4575 -84.212 17.5254 -84.0731 17.6463C-83.9341 17.7672 -83.8562 17.931 -83.8562 18.1021C-83.8562 18.2764 -83.9371 18.4434 -84.0808 18.565C-84.2249 18.6862 -84.419 18.7518 -84.6193 18.7466L-84.5969 18.747ZM18.4587 34.2632L34.9992 10.3993C36.4805 11.4692 36.962 13.1646 36.0956 14.4217L27.3622 27.0309C27.1483 27.3303 27.2505 27.7237 27.592 27.9141C27.7063 27.9729 27.8368 28.0043 27.9695 28.0043C28.2315 28.018 28.4822 27.9102 28.6289 27.7205L37.3545 15.0925C38.762 13.0619 37.7769 10.2899 35.1322 8.91699L34.9841 8.83958L36.1397 7.1634C36.5977 6.51532 36.7396 5.73518 36.5338 4.99557C36.3279 4.25595 35.7916 3.61886 35.0436 3.22473L34.7547 3.07631V3.07663C34.0067 2.6851 33.1102 2.56898 32.2637 2.75387C31.4172 2.93908 30.6901 3.40994 30.2435 4.06278L29.0731 5.73223L28.9176 5.65482V5.65514C28.7519 5.56462 28.5504 5.53871 28.3619 5.58413C28.1707 5.62379 28.0057 5.7284 27.9028 5.87426L10.9624 30.3704L18.4587 34.2632ZM18.0143 24.7289L28.5843 9.45099V9.45067C28.8078 9.18357 29.2272 9.10649 29.5558 9.2725C29.884 9.43883 30.0149 9.79422 29.8583 10.0956L19.2808 25.3923C19.1474 25.5881 18.9051 25.7084 18.6434 25.7084C18.51 25.7064 18.3795 25.6729 18.2659 25.6114C17.9167 25.4278 17.8043 25.0328 18.0141 24.7286L18.0143 24.7289ZM39.0432 36.8288C39.0124 36.998 38.905 37.1499 38.7451 37.2504C38.5853 37.3508 38.386 37.3914 38.1916 37.3636C37.9968 37.3367 37.8222 37.2433 37.7068 37.1042C37.5914 36.965 37.5447 36.7916 37.5767 36.6224C37.7593 35.5902 37.4954 34.5359 36.836 33.6636C36.5941 34.1028 36.3982 34.5602 36.2508 35.0301L36.0064 35.6747C35.3992 37.2024 34.3545 38.1371 33.0434 38.3174C31.9694 38.4659 30.8211 38.0596 29.6806 37.1121L29.2362 36.7382H29.2358C28.7547 36.2584 28.1643 35.8698 27.5027 35.5972C26.6169 35.3822 25.6697 35.4721 24.8581 35.8486C24.2079 36.1377 23.5838 36.4698 22.9916 36.8415C22.7101 37.0091 22.4285 37.1767 22.1322 37.3379C20.2804 38.3759 17.5766 38.5755 14.9841 38.5755C14.0803 38.5755 13.1915 38.5755 12.3546 38.5304C11.8212 38.5304 11.3176 38.4981 10.8733 38.4981C10.7939 38.4962 10.716 38.4808 10.6436 38.453H10.577H10.5252H10.5248C10.4734 38.4264 10.4259 38.3938 10.3844 38.3564C10.3263 38.3046 10.2811 38.2432 10.251 38.1757C10.248 38.1565 10.248 38.137 10.251 38.1178C10.2271 38.0532 10.2146 37.9857 10.2139 37.9178L10.4657 31.9227L17.2212 35.4555L13.5176 37.3057C16.3178 37.3703 19.488 37.3056 21.3545 36.2936L22.1694 35.8167C22.8252 35.4027 23.5192 35.0362 24.2436 34.7207C25.4117 34.1856 26.7769 34.0788 28.0362 34.4242C28.8882 34.7569 29.6465 35.2476 30.2581 35.8618C30.3989 35.9779 30.5397 36.1004 30.6805 36.2098C31.4803 36.8544 32.1989 37.164 32.7992 37.0802C33.7993 36.9449 34.3695 35.7911 34.562 35.2882C34.6436 35.0883 34.7175 34.8887 34.7917 34.6824V34.6821C35.0303 33.7611 35.5236 32.9048 36.2286 32.1873C36.3764 32.0766 36.5605 32.0088 36.7546 31.9938C36.9527 31.9948 37.142 32.0642 37.2806 32.1873C38.6674 33.4106 39.3195 35.127 39.0434 36.8288H39.0432ZM-99.0166 73.057H-96.7943V84.0153H-99.0166V73.057ZM-107.328 67.5775H-105.105V84.0158H-107.328V67.5775ZM-90.7129 75.8548H-88.4906V84.0158H-90.7129V75.8548ZM-80.5569 61.1313H-119.076C-119.485 61.1313 -119.816 61.4198 -119.816 61.7758V87.7803C-119.816 87.9511 -119.738 88.1152 -119.6 88.2361C-119.461 88.3571 -119.272 88.4249 -119.076 88.4249H-80.5569C-80.3607 88.4249 -80.1721 88.3571 -80.0332 88.2361C-79.8942 88.1152 -79.8163 87.9511 -79.8163 87.7803V61.7758C-79.8163 61.605 -79.8942 61.4409 -80.0332 61.32C-80.1721 61.1991 -80.3607 61.1313 -80.5569 61.1313ZM-82.6532 85.3048H-115.616C-116.025 85.3048 -116.357 85.0162 -116.357 84.6602V64.8956C-116.357 64.5396 -116.025 64.2511 -115.616 64.2511C-115.419 64.2511 -115.231 64.3189 -115.092 64.4398C-114.953 64.5607 -114.875 64.7248 -114.875 64.8956V84.0149H-108.808V66.9322C-108.808 66.5761 -108.477 66.2876 -108.067 66.2876H-104.364C-104.167 66.2876 -103.979 66.3554 -103.84 66.4763C-103.701 66.5973 -103.623 66.7614 -103.623 66.9322V84.0149H-100.534V72.4113C-100.534 72.0553 -100.203 71.7665 -99.7935 71.7665H-96.09C-95.8933 71.7665 -95.7051 71.8346 -95.5662 71.9555C-95.4272 72.0764 -95.3489 72.2402 -95.3489 72.4113V84.0149H-92.2599L-92.2603 75.2095C-92.2603 74.8534 -91.9287 74.5649 -91.5196 74.5649H-87.816C-87.6194 74.5649 -87.4308 74.6327 -87.2923 74.7536C-87.1533 74.8745 -87.075 75.0383 -87.075 75.2095V84.0149H-82.7564C-82.5601 84.0149 -82.3716 84.0827 -82.2326 84.2036C-82.0941 84.3246 -82.0158 84.4887 -82.0158 84.6595C-82.0121 84.9832 -82.2848 85.2589 -82.6528 85.304L-82.6532 85.3048ZM36.7472 62.9173L39.9917 60.1001V60.1005C40.2787 59.849 40.2787 59.4428 39.9917 59.1913L38.4214 57.8184H38.421C38.2813 57.6975 38.092 57.6303 37.8954 57.6313C37.6983 57.6303 37.509 57.6975 37.3694 57.8184L34.1249 60.6419L30.8878 57.8184C30.7481 57.6975 30.5588 57.6303 30.3621 57.6313C30.1651 57.6303 29.9758 57.6975 29.8362 57.8184L28.2659 59.1913H28.2655C27.9784 59.4428 27.9784 59.849 28.2655 60.1005L30.7693 62.2727H10.5544C10.1614 62.2727 9.78467 62.4087 9.50677 62.6502C9.2289 62.892 9.07303 63.2202 9.07303 63.5618V90.6358C9.07303 90.9778 9.22888 91.3059 9.50677 91.5475C9.78465 91.7893 10.1614 91.9252 10.5544 91.9252H33.9545C34.3475 91.9252 34.7246 91.7893 35.0021 91.5475C35.28 91.306 35.4362 90.9778 35.4362 90.6358V66.3395L37.3696 68.0221C37.5093 68.1427 37.6986 68.2098 37.8956 68.2089C38.0923 68.2098 38.2816 68.1427 38.4212 68.0221L39.9915 66.6491L39.9919 66.6488C40.279 66.3974 40.279 65.9915 39.9919 65.74L36.7472 62.9173ZM31.2954 79.0329H13.1693C12.7602 79.0329 12.4287 78.7444 12.4287 78.3884C12.4287 78.0323 12.7602 77.7438 13.1693 77.7438H31.2954C31.7045 77.7438 32.036 78.0323 32.036 78.3884C32.036 78.7444 31.7045 79.0329 31.2954 79.0329ZM32.036 82.9008C32.036 83.0716 31.9581 83.2357 31.8191 83.3566C31.6802 83.4776 31.4916 83.5454 31.2954 83.5454H13.1693C12.7602 83.5454 12.4287 83.2569 12.4287 82.9008C12.4287 82.5448 12.7602 82.256 13.1693 82.256H31.2954C31.4916 82.256 31.6802 82.3241 31.8191 82.445C31.9581 82.5659 32.036 82.7297 32.036 82.9008ZM31.2954 74.52L13.1693 74.5204C12.7602 74.5204 12.4287 74.2315 12.4287 73.8755C12.4287 73.5195 12.7602 73.2309 13.1693 73.2309H31.2954C31.7045 73.2309 32.036 73.5195 32.036 73.8755C32.036 74.2315 31.7045 74.5204 31.2954 74.5204V74.52ZM13.1477 86.7681H31.2954C31.7045 86.7681 32.036 87.0566 32.036 87.4126C32.036 87.7687 31.7045 88.0575 31.2954 88.0575H13.1693C12.7602 88.0575 12.4287 87.7687 12.4287 87.4126C12.4287 87.0566 12.7602 86.7681 13.1693 86.7681H13.1477ZM31.2954 70.008H13.1693C12.7602 70.008 12.4287 69.7195 12.4287 69.3634C12.4287 69.0074 12.7602 68.7186 13.1693 68.7186H31.2954C31.7045 68.7186 32.036 69.0074 32.036 69.3634C32.036 69.7195 31.7045 70.008 31.2954 70.008ZM-84.3881 112.289L-85.514 111.27C-85.8025 111.01 -86.2028 110.868 -86.6178 110.877C-87.0375 110.893 -87.4308 111.059 -87.7065 111.335L-93.3137 117.02L-93.8989 116.086H-93.8993C-94.0978 115.762 -94.4455 115.528 -94.8546 115.441C-95.2556 115.354 -95.6798 115.418 -96.025 115.615L-97.3361 116.376C-97.7048 116.594 -97.9496 116.939 -98.0102 117.323H-114.247C-114.64 117.323 -115.016 117.459 -115.294 117.701C-115.572 117.943 -115.728 118.271 -115.728 118.613V145.687C-115.728 146.028 -115.572 146.356 -115.294 146.598C-115.016 146.84 -114.64 146.976 -114.247 146.976H-90.8249C-90.432 146.976 -90.0553 146.84 -89.7774 146.598C-89.4998 146.356 -89.3436 146.029 -89.3436 145.687V119.289L-84.3289 114.183C-84.0683 113.918 -83.9282 113.579 -83.9352 113.23C-83.9418 112.88 -84.0951 112.546 -84.366 112.288L-84.3881 112.289ZM-93.4398 143.108H-111.588C-111.997 143.108 -112.329 142.82 -112.329 142.464C-112.329 142.108 -111.997 141.819 -111.588 141.819H-93.4398C-93.2436 141.819 -93.055 141.887 -92.9161 142.008C-92.7771 142.129 -92.6992 142.292 -92.6992 142.464C-92.6992 142.634 -92.7771 142.799 -92.9161 142.919C-93.055 143.04 -93.2436 143.108 -93.4398 143.108ZM-93.4398 138.596H-111.588C-111.997 138.596 -112.329 138.307 -112.329 137.951C-112.329 137.595 -111.997 137.307 -111.588 137.307H-93.4398C-93.2436 137.307 -93.055 137.374 -92.9161 137.495C-92.7771 137.616 -92.6992 137.78 -92.6992 137.951C-92.6992 138.122 -92.7771 138.286 -92.9161 138.407C-93.055 138.528 -93.2436 138.596 -93.4398 138.596ZM-93.4398 134.083H-111.587L-111.588 134.084C-111.997 134.084 -112.329 133.795 -112.329 133.439C-112.329 133.083 -111.997 132.794 -111.588 132.794H-93.4393C-93.243 132.794 -93.0544 132.862 -92.9155 132.983C-92.7765 133.104 -92.6986 133.268 -92.6986 133.439C-92.6986 133.61 -92.7765 133.774 -92.9155 133.895C-93.0544 134.015 -93.243 134.084 -93.4393 134.084L-93.4398 134.083ZM-93.4398 129.571H-111.587L-111.588 129.571C-111.997 129.571 -112.329 129.283 -112.329 128.927C-112.329 128.571 -111.997 128.282 -111.588 128.282H-93.4393C-93.243 128.282 -93.0544 128.35 -92.9155 128.471C-92.7765 128.592 -92.6986 128.755 -92.6986 128.927C-92.6986 129.097 -92.7765 129.261 -92.9155 129.382C-93.0544 129.503 -93.243 129.571 -93.4393 129.571L-93.4398 129.571ZM-93.4398 125.058H-111.587L-111.588 125.059C-111.997 125.059 -112.329 124.77 -112.329 124.414C-112.329 124.058 -111.997 123.77 -111.588 123.77H-93.4393C-93.243 123.77 -93.0544 123.837 -92.9155 123.958C-92.7765 124.079 -92.6986 124.243 -92.6986 124.414C-92.6986 124.585 -92.7765 124.749 -92.9155 124.87C-93.0544 124.991 -93.243 125.059 -93.4393 125.059L-93.4398 125.058ZM-85.4397 113.345L-90.6249 118.637L-93.8323 121.86L-96.4766 117.651V117.599L-96.477 117.6C-96.5101 117.552 -96.5101 117.493 -96.477 117.445L-95.1585 116.71L-94.5733 117.632H-94.573C-94.3466 118.014 -93.9161 118.273 -93.4251 118.322C-92.9348 118.371 -92.4488 118.204 -92.1287 117.877L-86.5435 112.166L-85.425 113.178C-85.3849 113.23 -85.3908 113.299 -85.4401 113.345L-85.4397 113.345ZM-26.9806 114.692L-48.2109 114.693C-53.1073 114.693 -57.0998 117.652 -57.0998 121.294V129.029C-57.0995 130.034 -56.7955 131.021 -56.218 131.891C-55.3708 133.266 -54.904 134.793 -54.8551 136.352L-54.5144 142.579C-54.4997 142.86 -54.2781 143.1 -53.9664 143.172C-53.9024 143.179 -53.8377 143.179 -53.7738 143.172C-53.5205 143.171 -53.286 143.056 -53.1515 142.869L-47.9662 135.611H-27.0032C-22.1068 135.611 -18.1143 132.652 -18.1143 129.01V121.274C-18.0995 117.651 -22.0847 114.693 -26.9811 114.693L-26.9806 114.692ZM-25.1361 130.485L-50.0551 130.486C-50.4642 130.486 -50.7957 130.197 -50.7957 129.841C-50.7957 129.485 -50.4642 129.197 -50.0551 129.197H-25.1361C-24.9399 129.197 -24.7513 129.264 -24.6124 129.385C-24.4734 129.506 -24.3955 129.67 -24.3955 129.841C-24.3955 130.012 -24.4734 130.176 -24.6124 130.297C-24.7513 130.418 -24.9399 130.486 -25.1361 130.486V130.485ZM-25.1361 127.352L-50.0551 127.353C-50.4642 127.353 -50.7957 127.064 -50.7957 126.708C-50.7957 126.352 -50.4642 126.064 -50.0551 126.064H-25.1361C-24.9399 126.064 -24.7513 126.131 -24.6124 126.252C-24.4734 126.373 -24.3955 126.537 -24.3955 126.708C-24.3955 126.879 -24.4734 127.043 -24.6124 127.164C-24.7513 127.285 -24.9399 127.353 -25.1361 127.353V127.352ZM-25.1361 124.226L-50.0551 124.227C-50.4642 124.227 -50.7957 123.938 -50.7957 123.582C-50.7957 123.226 -50.4642 122.937 -50.0551 122.937H-25.1361C-24.9399 122.937 -24.7513 123.005 -24.6124 123.126C-24.4734 123.247 -24.3955 123.411 -24.3955 123.582C-24.3955 123.753 -24.4734 123.917 -24.6124 124.038C-24.7513 124.158 -24.9399 124.227 -25.1361 124.227V124.226ZM-25.1361 121.093L-50.0551 121.093C-50.4642 121.093 -50.7957 120.805 -50.7957 120.449C-50.7957 120.093 -50.4642 119.804 -50.0551 119.804H-25.1361C-24.9399 119.804 -24.7513 119.872 -24.6124 119.993C-24.4734 120.114 -24.3955 120.278 -24.3955 120.449C-24.3955 120.62 -24.4734 120.784 -24.6124 120.905C-24.7513 121.026 -24.9399 121.093 -25.1361 121.093V121.093ZM31.5077 128.926C31.5077 130.514 30.7829 132.037 29.4923 133.16C28.2018 134.283 26.4515 134.914 24.6265 134.914C22.8012 134.914 21.0508 134.283 19.7602 133.16C18.47 132.037 17.7448 130.514 17.7448 128.926C17.7448 127.337 18.47 125.814 19.7602 124.691C21.0508 123.568 22.8011 122.937 24.6265 122.937C26.4507 122.939 28.2 123.57 29.4902 124.693C30.7803 125.816 31.506 127.338 31.5077 128.926ZM42.4852 125.948L37.4112 125.947C37.1138 124.974 36.668 124.039 36.085 123.169L39.6777 120.043C39.9651 119.791 39.9651 119.385 39.6777 119.134L35.8777 115.827C35.738 115.706 35.5487 115.639 35.3517 115.64C35.1577 115.641 34.9713 115.708 34.8335 115.827L31.2408 118.953C30.2425 118.447 29.1714 118.059 28.0554 117.799V113.384C28.0554 113.213 27.9775 113.049 27.8386 112.928C27.6996 112.807 27.511 112.739 27.3148 112.739H21.9443C21.5352 112.739 21.2036 113.028 21.2036 113.384V117.799C20.0851 118.058 19.011 118.446 18.0112 118.953L14.4186 115.827C14.1297 115.577 13.6629 115.577 13.3739 115.827L9.57399 119.134C9.28693 119.385 9.28693 119.791 9.57399 120.043L13.1666 123.169C12.5837 124.039 12.1378 124.974 11.8408 125.947H6.76649C6.35739 125.947 6.02585 126.236 6.02585 126.592V131.266C6.02585 131.437 6.10378 131.601 6.24272 131.722C6.38167 131.842 6.57022 131.91 6.76649 131.91H11.8408C12.1393 132.881 12.5851 133.814 13.1666 134.682L9.57399 137.809C9.28693 138.06 9.28693 138.466 9.57399 138.718L13.3739 142.025C13.5136 142.145 13.7029 142.213 13.8999 142.212C14.0944 142.211 14.2804 142.144 14.4186 142.025L18.0112 138.898C19.011 139.405 20.085 139.793 21.2036 140.052V144.468C21.2036 144.639 21.2818 144.803 21.4204 144.924C21.5594 145.045 21.7479 145.112 21.9442 145.112H27.3147C27.511 145.112 27.6996 145.045 27.8385 144.924C27.9775 144.803 28.0554 144.639 28.0554 144.468V140.052C29.1713 139.792 30.2424 139.404 31.2408 138.898L34.8334 142.025C35.1223 142.275 35.5887 142.275 35.8777 142.025L39.6776 138.718C39.9651 138.466 39.9651 138.06 39.6776 137.809L36.085 134.682C36.6665 133.814 37.1127 132.881 37.4112 131.91H42.4851C42.6814 131.91 42.87 131.842 43.0089 131.722C43.1479 131.601 43.2258 131.437 43.2258 131.266V126.592C43.2258 126.236 42.8942 125.947 42.4851 125.947L42.4852 125.948ZM24.6264 136.204C22.4081 136.204 20.281 135.437 18.7125 134.072C17.1445 132.707 16.2635 130.856 16.2635 128.926C16.2635 126.995 17.1445 125.144 18.7125 123.779C20.281 122.415 22.408 121.648 24.6264 121.648C26.8443 121.648 28.9714 122.415 30.5398 123.779C32.1083 125.144 32.9893 126.995 32.9893 128.926C32.9871 130.855 32.1057 132.705 30.5376 134.07C28.9695 135.434 26.8435 136.202 24.6264 136.204ZM-86.0229 165.734H-113.608C-114.034 165.734 -114.443 165.881 -114.744 166.144C-115.045 166.406 -115.215 166.762 -115.215 167.133V199.016V199.016C-115.215 199.387 -115.045 199.743 -114.744 200.005C-114.443 200.268 -114.034 200.415 -113.608 200.415H-86.0229C-85.5965 200.415 -85.1878 200.268 -84.886 200.005C-84.5846 199.743 -84.4155 199.387 -84.4155 199.016V167.133C-84.4155 166.762 -84.5846 166.406 -84.886 166.144C-85.1878 165.881 -85.5965 165.734 -86.0229 165.734V165.734ZM-110.468 171.807H-89.1046L-89.1042 171.806C-88.9079 171.806 -88.7194 171.874 -88.5804 171.995C-88.4415 172.116 -88.3636 172.28 -88.3636 172.451C-88.3636 172.622 -88.4415 172.786 -88.5804 172.907C-88.7194 173.028 -88.9079 173.096 -89.1042 173.096H-110.467C-110.876 173.096 -111.208 172.807 -111.208 172.451C-111.208 172.105 -110.894 171.82 -110.497 171.806L-110.468 171.807ZM-110.468 177.118H-89.1046L-89.1042 177.118C-88.9079 177.118 -88.7194 177.186 -88.5804 177.307C-88.4415 177.428 -88.3636 177.592 -88.3636 177.763C-88.3636 177.934 -88.4415 178.098 -88.5804 178.219C-88.7194 178.339 -88.9079 178.407 -89.1042 178.407H-110.467C-110.876 178.407 -111.208 178.119 -111.208 177.763C-111.208 177.417 -110.894 177.132 -110.497 177.118L-110.468 177.118ZM-110.468 182.43H-89.1046L-89.1042 182.43C-88.9079 182.43 -88.7194 182.498 -88.5804 182.619C-88.4415 182.74 -88.3636 182.903 -88.3636 183.075C-88.3636 183.245 -88.4415 183.409 -88.5804 183.53C-88.7194 183.651 -88.9079 183.719 -89.1042 183.719H-110.467C-110.876 183.719 -111.208 183.431 -111.208 183.075C-111.208 182.728 -110.894 182.444 -110.497 182.43L-110.468 182.43ZM-111.208 188.387V188.386C-111.208 188.03 -110.876 187.742 -110.468 187.742H-89.1046C-88.9083 187.742 -88.7197 187.809 -88.5808 187.93C-88.4418 188.051 -88.3639 188.215 -88.3639 188.386C-88.3639 188.557 -88.4418 188.721 -88.5808 188.842C-88.7197 188.963 -88.9083 189.031 -89.1046 189.031H-110.468C-110.669 189.038 -110.865 188.973 -111.01 188.851C-111.156 188.73 -111.238 188.562 -111.238 188.386L-111.208 188.387ZM-87.5041 196.219V196.458C-87.5041 196.819 -87.5706 197.586 -88.4079 197.779V197.778C-88.7244 197.855 -89.0633 197.805 -89.3338 197.643C-89.6937 197.42 -89.9304 197.077 -89.9855 196.696C-90.2465 196.963 -90.5663 197.182 -90.9265 197.34C-91.225 197.469 -91.5859 197.408 -91.8079 197.192C-91.8565 197.142 -91.8987 197.088 -91.9336 197.031C-91.9336 197.115 -92.0079 197.192 -92.052 197.276L-92.0524 197.276C-92.2005 197.625 -92.4273 197.945 -92.7188 198.217C-93.0297 198.483 -93.4458 198.635 -93.8817 198.642C-94.0677 198.643 -94.2519 198.61 -94.4224 198.545C-94.7904 198.411 -95.0737 198.146 -95.2002 197.817C-95.3619 197.421 -95.327 196.984 -95.1039 196.612C-94.7907 196.153 -94.3261 195.787 -93.7707 195.561C-93.4495 195.396 -93.1061 195.266 -92.7485 195.174C-92.7485 195.019 -92.6743 194.865 -92.6522 194.71C-92.535 194.093 -92.6886 193.46 -93.0819 192.937C-93.2539 192.728 -93.494 192.568 -93.7711 192.479C-94.0483 192.389 -94.35 192.374 -94.6375 192.435C-94.8885 192.523 -95.083 192.702 -95.1708 192.924C-95.2524 193.078 -95.2524 193.255 -95.1708 193.408C-94.9709 193.718 -95.0969 194.11 -95.4524 194.285C-95.8082 194.458 -96.2588 194.349 -96.4595 194.04C-96.7609 193.555 -96.7988 192.978 -96.5631 192.467C-96.3198 191.888 -95.7975 191.431 -95.1337 191.216C-94.5508 191.066 -93.9284 191.076 -93.3521 191.245C-92.7757 191.413 -92.2729 191.732 -91.9115 192.157C-91.269 192.942 -91.0033 193.913 -91.1709 194.865C-91.1709 195.013 -91.2154 195.155 -91.2525 195.297L-91.2521 195.297C-91.118 195.368 -90.9933 195.452 -90.882 195.548C-90.7772 195.209 -90.4516 194.956 -90.0524 194.903C-89.5323 194.83 -89.0129 195.039 -88.7412 195.432V195.484C-88.596 195.284 -88.3722 195.137 -88.1116 195.071C-87.923 195.023 -87.7201 195.043 -87.5477 195.125C-87.3757 195.207 -87.2478 195.345 -87.193 195.51C-87.1118 195.782 -87.2437 196.07 -87.5187 196.218L-87.5041 196.219ZM-93.5263 196.928V196.927C-93.5877 197.057 -93.6726 197.177 -93.7781 197.282L-93.8446 197.321H-93.845C-93.859 197.281 -93.859 197.238 -93.845 197.198C-93.7686 197.089 -93.6645 196.997 -93.541 196.927L-93.5263 196.928ZM-48.112 190.224V190.224C-48.5719 190.922 -49.2368 191.502 -50.0381 191.904C-50.8398 192.306 -51.7499 192.516 -52.675 192.512C-53.5998 192.519 -54.5099 192.31 -55.3109 191.908C-56.1118 191.505 -56.7746 190.924 -57.2303 190.224C-57.832 189.324 -58.0617 188.274 -57.8823 187.245C-54.5062 186.178 -50.8 186.215 -47.4526 187.349C-47.3063 188.345 -47.5434 189.356 -48.1267 190.224L-48.112 190.224ZM-17.9265 190.224V190.224C-18.383 190.925 -19.0468 191.507 -19.8493 191.909C-20.6517 192.312 -21.5633 192.52 -22.4896 192.512C-23.4144 192.519 -24.3245 192.31 -25.1254 191.908C-25.9264 191.505 -26.5891 190.924 -27.0448 190.224C-27.6245 189.357 -27.8612 188.349 -27.719 187.355H-27.6745C-24.3355 186.205 -20.6227 186.184 -17.2673 187.297C-17.1078 188.311 -17.3452 189.342 -17.9414 190.224L-17.9265 190.224ZM-31.5932 193.666H-35.1932V176.506H-24.8227V178.646C-24.8216 179.016 -24.7051 179.378 -24.486 179.695C-24.267 180.012 -23.953 180.271 -23.5781 180.444L-27.0597 185.653L-27.1189 185.75C-24.1082 185.029 -20.9328 185.012 -17.9117 185.698V185.653L-21.3561 180.458H-21.3558C-20.9819 180.283 -20.6691 180.023 -20.4501 179.707C-20.231 179.39 -20.1141 179.028 -20.1115 178.659V173.012C-20.1115 172.841 -20.1894 172.677 -20.3284 172.556C-20.4673 172.435 -20.6559 172.368 -20.8522 172.368H-35.2077V169.428H-33.3335L-33.3338 169.428C-33.1372 169.428 -32.949 169.36 -32.81 169.239C-32.6711 169.118 -32.5932 168.954 -32.5932 168.783C-32.5932 167.758 -33.0611 166.774 -33.8947 166.048C-34.7284 165.323 -35.8586 164.915 -37.0374 164.915H-38.1486C-39.3274 164.915 -40.4576 165.323 -41.2913 166.048C-42.1245 166.774 -42.5928 167.758 -42.5928 168.783C-42.5928 168.954 -42.5149 169.118 -42.376 169.239C-42.237 169.36 -42.0484 169.428 -41.8522 169.428H-39.9779V172.367L-54.3043 172.368C-54.7134 172.368 -55.0449 172.656 -55.0449 173.012V178.659C-55.0438 179.029 -54.9277 179.391 -54.7086 179.708C-54.4895 180.025 -54.1756 180.284 -53.8007 180.458L-57.2452 185.653C-54.2259 184.999 -51.0652 185.024 -48.06 185.724C-48.0725 185.692 -48.0902 185.662 -48.1118 185.634L-51.5563 180.438C-51.1821 180.263 -50.8693 180.004 -50.6502 179.688C-50.4312 179.371 -50.3143 179.009 -50.3117 178.64V176.499H-39.9412V193.659H-43.5485C-44.8875 193.661 -46.1715 194.125 -47.1184 194.948C-48.0656 195.773 -48.5983 196.89 -48.6004 198.055V200.595C-48.6004 200.766 -48.5221 200.93 -48.3836 201.051C-48.2446 201.172 -48.0561 201.24 -47.8598 201.24H-27.2967C-27.1 201.24 -26.9118 201.172 -26.7729 201.051C-26.6339 200.93 -26.5556 200.766 -26.5556 200.595V198.055C-26.5597 196.891 -27.0934 195.775 -28.0402 194.953C-28.987 194.13 -30.2695 193.667 -31.6074 193.665L-31.5932 193.666ZM-31.097 198.101H-44.0599L-44.0595 198.101C-44.4686 198.101 -44.8005 197.812 -44.8005 197.456C-44.8005 197.1 -44.4686 196.811 -44.0595 196.811H-31.0966H-31.097C-30.9004 196.811 -30.7122 196.88 -30.5732 197C-30.4343 197.121 -30.3564 197.285 -30.3564 197.456C-30.356 197.629 -30.4361 197.795 -30.5784 197.917C-30.7206 198.038 -30.9129 198.104 -31.1117 198.101L-31.097 198.101ZM39.3397 164.697L12.1549 164.696C11.7307 164.696 11.3235 164.843 11.0236 165.104C10.7237 165.365 10.5549 165.719 10.5549 166.088V167.262H9.93263C9.50845 167.262 9.10156 167.408 8.8013 167.67C8.50136 167.931 8.33264 168.285 8.33264 168.654V200.06C8.33264 200.429 8.50136 200.784 8.8013 201.045C9.10161 201.306 9.5085 201.452 9.93263 201.452H37.1033C37.5278 201.452 37.9347 201.306 38.2346 201.045C38.5349 200.783 38.7033 200.429 38.7033 200.06V198.887H39.3256C39.7497 198.887 40.157 198.74 40.4569 198.479C40.7569 198.218 40.9256 197.864 40.9256 197.494V166.088C40.9256 165.719 40.7569 165.365 40.4569 165.104C40.157 164.843 39.7497 164.696 39.3256 164.696L39.3397 164.697ZM39.4433 197.495C39.4433 197.552 39.3904 197.598 39.325 197.598H38.7027V168.022C38.7027 167.653 38.5343 167.299 38.234 167.038C37.9341 166.777 37.5272 166.63 37.1027 166.63H12.0361V166.088C12.0361 166.061 12.0486 166.035 12.0706 166.015C12.0927 165.996 12.1228 165.985 12.1544 165.985H39.3251C39.3563 165.985 39.3865 165.996 39.4089 166.015C39.4309 166.035 39.4434 166.061 39.4434 166.088L39.4433 197.495ZM-81.1046 226C-81.2108 226.274 -81.5137 226.454 -81.8456 226.439C-81.9239 226.451 -82.0044 226.451 -82.0827 226.439L-87.9568 224.711H-87.9565C-88.1436 224.656 -88.2979 224.539 -88.3854 224.386C-88.4729 224.232 -88.4865 224.054 -88.4233 223.892C-88.3608 223.729 -88.2266 223.595 -88.0498 223.519C-87.8734 223.443 -87.669 223.431 -87.4827 223.486L-81.6085 225.22C-81.2266 225.32 -81.0043 225.664 -81.1046 226ZM-85.5937 226.973C-85.6948 227.234 -85.9742 227.41 -86.2899 227.412C-86.3682 227.425 -86.4487 227.425 -86.527 227.412L-88.7493 226.767V226.767C-88.936 226.713 -89.0904 226.596 -89.1778 226.442C-89.2657 226.289 -89.2793 226.111 -89.2157 225.949C-89.0826 225.612 -88.6618 225.434 -88.2751 225.549L-86.0528 226.194C-85.6889 226.309 -85.489 226.649 -85.5937 226.973ZM-95.919 238.28V238.28C-95.7926 238.618 -96.0047 238.982 -96.3932 239.092C-96.4674 239.112 -96.545 239.123 -96.6229 239.125C-96.9431 239.124 -97.2272 238.945 -97.3265 238.68L-99.2448 233.522H-99.2452C-99.3055 233.359 -99.2886 233.182 -99.1981 233.029C-99.1081 232.877 -98.9515 232.762 -98.7637 232.71C-98.5758 232.658 -98.3718 232.672 -98.1969 232.751C-98.0216 232.83 -97.8896 232.966 -97.8304 233.129L-95.919 238.28ZM-94.7413 234.412C-94.681 234.576 -94.6976 234.753 -94.788 234.905C-94.8784 235.058 -95.035 235.173 -95.2228 235.224C-95.2971 235.245 -95.3746 235.256 -95.4526 235.257C-95.7749 235.256 -96.0594 235.073 -96.1561 234.805L-96.8967 232.871V232.872C-97.0235 232.533 -96.8111 232.17 -96.4229 232.059C-96.034 231.949 -95.6165 232.134 -95.4893 232.472L-94.7413 234.412ZM-90.5337 223.067L-95.1632 222.209H-95.1636C-95.769 222.107 -96.3968 222.189 -96.9412 222.441L-98.882 220.887C-99.4528 220.442 -100.193 220.195 -100.96 220.195C-101.727 220.195 -102.467 220.442 -103.038 220.887L-103.423 221.19V221.191C-103.985 221.637 -104.308 222.268 -104.312 222.931C-104.309 223.592 -103.986 224.222 -103.423 224.665L-103.327 224.743L-112.371 231.988H-112.741H-112.741C-113.15 231.988 -113.482 232.277 -113.482 232.633V235.546C-113.482 235.717 -113.404 235.881 -113.265 236.002C-113.126 236.123 -112.938 236.191 -112.741 236.191H-112.238V247.053H-114.586C-115.64 247.054 -116.651 247.42 -117.396 248.069C-118.142 248.717 -118.562 249.597 -118.563 250.514V253.641C-118.563 253.812 -118.485 253.976 -118.346 254.097C-118.208 254.218 -118.019 254.285 -117.823 254.285H-102.267C-102.071 254.285 -101.883 254.218 -101.744 254.097C-101.605 253.976 -101.527 253.812 -101.527 253.641V250.514C-101.527 249.597 -101.945 248.718 -102.689 248.069C-103.433 247.42 -104.444 247.054 -105.497 247.053H-108.46V236.171H-107.956C-107.76 236.171 -107.571 236.103 -107.433 235.983C-107.294 235.862 -107.216 235.698 -107.216 235.527V232.613C-107.22 232.496 -107.261 232.382 -107.334 232.284L-101.734 227.772L-100.719 231.846V231.846C-100.663 232.076 -100.467 232.262 -100.208 232.329C-100.14 232.339 -100.069 232.339 -100.001 232.329C-99.804 232.33 -99.6147 232.263 -99.4747 232.143L-90.1858 224.13C-89.9892 223.963 -89.9153 223.714 -89.9932 223.485C-90.0686 223.263 -90.2752 223.093 -90.5339 223.04L-90.5337 223.067ZM-106.045 250.025H-106.045C-105.848 250.025 -105.66 250.093 -105.521 250.214C-105.382 250.335 -105.304 250.499 -105.304 250.67C-105.304 250.841 -105.382 251.005 -105.521 251.125C-105.66 251.246 -105.848 251.314 -106.045 251.314H-114.03C-114.439 251.314 -114.771 251.026 -114.771 250.67C-114.771 250.314 -114.439 250.025 -114.03 250.025H-106.045ZM13.5155 232.652H12.2191V227.309L13.5155 227.308V227.566C13.481 228.077 13.6898 228.577 14.093 228.949C14.4958 229.321 15.0575 229.532 15.6452 229.532C16.2326 229.532 16.7942 229.321 17.1974 228.949C17.6007 228.577 17.8094 228.077 17.7749 227.566V227.308H18.8861V227.566C18.8534 228.077 19.0644 228.576 19.4687 228.947C19.8734 229.318 20.4357 229.527 21.0235 229.525C21.6108 229.524 22.1717 229.311 22.5732 228.938C22.9749 228.564 23.1818 228.063 23.1451 227.553V227.295H30.4637V227.553C30.4292 228.064 30.6379 228.564 31.0408 228.936C31.444 229.308 32.0057 229.519 32.5934 229.519C33.1808 229.519 33.7424 229.308 34.1456 228.936C34.5485 228.564 34.7573 228.064 34.7227 227.553V227.295H37.0339V232.639H29.0709V232.381C29.1055 231.871 28.8967 231.371 28.4935 230.999C28.0906 230.627 27.529 230.415 26.9413 230.415C26.3539 230.415 25.7922 230.627 25.389 230.999C24.9862 231.371 24.777 231.871 24.8116 232.381V232.639H17.7745V232.381H17.7749C17.8094 231.871 17.6006 231.371 17.1974 230.999C16.7942 230.627 16.2325 230.415 15.6452 230.415C15.0574 230.415 14.4958 230.627 14.0929 230.999C13.6897 231.371 13.4809 231.871 13.5155 232.381L13.5155 232.652ZM14.9083 239.898H12.2191V234.548L13.5155 234.547V234.812C13.5585 235.448 13.9739 236.02 14.615 236.328C15.2564 236.636 16.0341 236.636 16.6755 236.328C17.3165 236.02 17.7316 235.448 17.7749 234.812V234.548H24.812V234.812H24.8117C24.855 235.448 25.27 236.02 25.9115 236.328C26.5525 236.636 27.3303 236.636 27.9717 236.328C28.6128 236.02 29.0282 235.448 29.0712 234.812V234.548L37.0342 234.547V239.898H31.8489V239.633V239.634C31.8059 238.997 31.3909 238.425 30.7495 238.117C30.108 237.809 29.3303 237.809 28.6892 238.117C28.0478 238.425 27.6328 238.997 27.5898 239.634V239.898H24.5378V239.634C24.4945 238.997 24.0795 238.425 23.4384 238.117C22.797 237.809 22.0192 237.809 21.3779 238.117C20.7368 238.425 20.3218 238.997 20.2784 239.634V239.898H19.1672V239.634C19.1242 238.997 18.7092 238.425 18.0678 238.117C17.4267 237.809 16.6486 237.809 16.0075 238.117C15.3661 238.425 14.9511 238.997 14.9081 239.634L14.9083 239.898ZM13.5155 225.413H12.2191V222.357H37.0336V225.413H34.7227V225.155C34.7572 224.644 34.5484 224.144 34.1456 223.772C33.7424 223.4 33.1807 223.189 32.5934 223.189C32.0056 223.189 31.4439 223.4 31.0407 223.772C30.6379 224.144 30.4291 224.644 30.4637 225.155V225.413H23.145V225.155C23.1796 224.644 22.9708 224.144 22.5676 223.772C22.1647 223.4 21.6031 223.189 21.0154 223.189C20.428 223.189 19.8663 223.4 19.4631 223.772C19.0603 224.144 18.8511 224.644 18.886 225.155V225.413H17.7748V225.155C17.8094 224.644 17.6006 224.144 17.1974 223.772C16.7942 223.4 16.2325 223.189 15.6452 223.189C15.0574 223.189 14.4958 223.4 14.0929 223.772C13.6897 224.144 13.4809 224.644 13.5155 225.155L13.5155 225.413ZM39.6041 219.012H9.64906C9.25613 219.012 8.879 219.147 8.60147 219.389C8.32359 219.631 8.16737 219.959 8.16737 220.301V254.144C8.16737 254.486 8.32359 254.814 8.60147 255.056C8.87898 255.297 9.2561 255.433 9.64906 255.433H39.6041C39.997 255.433 40.3737 255.297 40.6517 255.056C40.9295 254.814 41.0854 254.486 41.0854 254.144V220.301C41.0854 219.959 40.9295 219.631 40.6517 219.389C40.3738 219.147 39.997 219.012 39.6041 219.012ZM38.5154 226.057V252.087H38.515C38.515 252.429 38.3591 252.757 38.0813 252.999C37.8034 253.241 37.4266 253.376 37.0337 253.376H12.2192C11.8263 253.376 11.4495 253.241 11.1716 252.999C10.8941 252.757 10.7379 252.429 10.7379 252.087V222.357C10.7379 222.015 10.8941 221.687 11.1716 221.445C11.4495 221.203 11.8262 221.068 12.2192 221.068H37.0337C37.4266 221.068 37.8033 221.203 38.0813 221.445C38.3591 221.687 38.515 222.015 38.515 222.357L38.5154 226.057ZM37.0341 249.032V252.088H12.2187V249.032H14.9074V249.29H14.9078C14.8732 249.8 15.082 250.301 15.4849 250.673C15.8881 251.045 16.4497 251.256 17.0375 251.256C17.6248 251.256 18.1865 251.045 18.5897 250.673C18.9926 250.301 19.2013 249.801 19.1668 249.29V249.032H27.5893V249.29C27.5543 249.8 27.7635 250.301 28.1663 250.673C28.5696 251.045 29.1312 251.256 29.7186 251.256C30.3063 251.256 30.868 251.045 31.2708 250.673C31.674 250.301 31.8828 249.801 31.8483 249.29V249.032H32.5V249.29H32.5003C32.4654 249.8 32.6746 250.301 33.0774 250.673C33.4806 251.045 34.0423 251.256 34.6296 251.256C35.2174 251.256 35.779 251.045 36.1823 250.673C36.5851 250.301 36.7939 249.801 36.7593 249.29V249.032H37.0341ZM14.908 247.137H12.2185V241.793H14.9072V242.051H14.9076C14.873 242.561 15.0818 243.062 15.4847 243.434C15.8879 243.806 16.4496 244.016 17.0373 244.016C17.6247 244.016 18.1863 243.806 18.5895 243.434C18.9924 243.062 19.2012 242.561 19.1666 242.051V241.793H20.2778V242.051C20.2432 242.561 20.452 243.062 20.8552 243.434C21.2581 243.806 21.8197 244.016 22.4075 244.016C22.9952 244.016 23.5565 243.806 23.9597 243.434C24.3629 243.062 24.5717 242.561 24.5372 242.051V241.793H27.5891V242.051C27.5542 242.561 27.7634 243.062 28.1662 243.434C28.5694 243.806 29.1311 244.016 29.7184 244.016C30.3062 244.016 30.8678 243.806 31.2707 243.434C31.6739 243.062 31.8827 242.561 31.8481 242.051V241.793H37.0334V247.137H36.7592V246.892C36.7937 246.381 36.5849 245.881 36.1821 245.509C35.7788 245.137 35.2172 244.926 34.6295 244.926C34.0421 244.926 33.4804 245.137 33.0772 245.509C32.6744 245.881 32.4652 246.381 32.5001 246.892V247.15H31.8484L31.8481 246.892C31.8826 246.381 31.6738 245.881 31.2706 245.509C30.8678 245.137 30.3061 244.926 29.7184 244.926C29.131 244.926 28.5694 245.137 28.1662 245.509C27.7633 245.881 27.5542 246.381 27.5891 246.892V247.15H19.1666V246.892C19.2012 246.381 18.9924 245.881 18.5895 245.509C18.1863 245.137 17.6246 244.926 17.0373 244.926C16.4495 244.926 15.8879 245.137 15.4847 245.509C15.0818 245.881 14.873 246.381 14.9076 246.892L14.908 247.137ZM24.6264 275.017C20.9076 275.017 17.2725 275.976 14.1806 277.774C11.0887 279.572 8.67918 282.128 7.25633 285.118C5.83387 288.108 5.4619 291.397 6.18787 294.572C6.91381 297.745 8.70535 300.661 11.3353 302.949C13.9652 305.237 17.3157 306.794 20.9633 307.425C24.6107 308.055 28.3908 307.731 31.826 306.491C35.2609 305.252 38.1966 303.154 40.2613 300.463C42.3263 297.771 43.4275 294.607 43.4261 291.372C43.4202 287.034 41.4376 282.876 37.9129 279.811C34.3883 276.745 29.61 275.021 24.6264 275.017V275.017ZM24.6264 305.391C20.3534 305.391 16.2554 303.914 13.234 301.285C10.2126 298.656 8.51518 295.089 8.51518 291.371C8.51518 287.652 10.2126 284.086 13.234 281.456C16.2554 278.827 20.3534 277.35 24.6264 277.35C28.899 277.35 32.997 278.827 36.0188 281.456C39.0401 284.086 40.7376 287.652 40.7376 291.371C40.7317 295.088 39.0324 298.651 36.0121 301.279C32.9921 303.908 28.8978 305.386 24.6263 305.392L24.6264 305.391ZM35.648 291.371C35.648 291.015 35.9799 290.726 36.389 290.726H39.2186C39.0311 287.582 37.5115 284.61 34.9533 282.384C32.395 280.158 28.9796 278.835 25.3666 278.672V281.141C25.3666 281.497 25.0351 281.785 24.626 281.785C24.2169 281.785 23.885 281.497 23.885 281.141V278.672C20.2721 278.835 16.8567 280.158 14.2983 282.384C11.7404 284.61 10.2205 287.582 10.0331 290.726H12.8703C13.2794 290.726 13.6109 291.015 13.6109 291.371C13.6109 291.727 13.2794 292.016 12.8703 292.016H10.0331C10.2205 295.16 11.7404 298.132 14.2983 300.359C16.8566 302.585 20.272 303.907 23.885 304.07V301.608C23.885 301.252 24.2169 300.963 24.626 300.963C25.0351 300.963 25.3666 301.252 25.3666 301.608V304.07C28.9795 303.907 32.3949 302.585 34.9533 300.359C37.5117 298.132 39.0311 295.16 39.2186 292.016H36.389C35.9799 292.016 35.648 291.727 35.648 291.371ZM31.4111 297.656C31.2762 297.76 31.1023 297.817 30.9222 297.817C30.7094 297.817 30.5072 297.738 30.3668 297.598L25.4483 292.719V292.718C25.1951 292.837 24.9132 292.901 24.6261 292.905C24.0902 292.901 23.5855 292.685 23.2543 292.319C22.9235 291.952 22.8022 291.474 22.925 291.02C23.0478 290.566 23.401 290.185 23.8851 289.985V283.152C23.8851 282.796 24.217 282.508 24.6261 282.508C25.0352 282.508 25.3667 282.796 25.3667 283.152V289.985C25.6707 290.108 25.9284 290.303 26.1096 290.549C26.2908 290.794 26.3875 291.08 26.389 291.371C26.3879 291.467 26.3757 291.562 26.3518 291.655L31.4776 296.747L31.478 296.748C31.7474 297.015 31.7176 297.421 31.4111 297.656ZM24.9073 291.371C24.9073 291.507 24.7816 291.616 24.6261 291.616C24.5519 291.616 24.4813 291.59 24.4295 291.544C24.378 291.498 24.3501 291.436 24.3519 291.371C24.3497 291.307 24.378 291.246 24.4299 291.201C24.4817 291.155 24.5526 291.131 24.6261 291.133C24.7 291.131 24.7717 291.155 24.8246 291.2C24.8776 291.245 24.9073 291.307 24.9073 291.371ZM-42.8335 300.093L-47.6185 295.929V295.929C-47.9471 295.809 -48.3088 295.778 -48.6584 295.837C-49.0076 295.897 -49.3288 296.046 -49.5813 296.264L-56.3589 302.162V302.162C-57.201 302.896 -57.673 303.891 -57.6701 304.928C-57.673 305.965 -57.201 306.96 -56.3589 307.693C-55.5161 308.426 -54.3726 308.837 -53.1812 308.834C-51.9899 308.837 -50.8465 308.426 -50.0036 307.693L-43.226 301.795H-43.2256C-42.9746 301.575 -42.804 301.296 -42.7353 300.992C-42.6669 300.688 -42.7033 300.373 -42.8404 300.087L-42.8335 300.093ZM-47.7817 300.209L-53.7076 305.399L-53.7073 305.398C-53.847 305.519 -54.0362 305.586 -54.2333 305.586C-54.4299 305.586 -54.6192 305.519 -54.7589 305.398C-54.8993 305.278 -54.9783 305.113 -54.9783 304.941C-54.9783 304.769 -54.8993 304.604 -54.7589 304.483L-48.8329 299.326H-48.8333C-48.694 299.204 -48.5047 299.136 -48.3073 299.136C-48.1095 299.136 -47.9202 299.204 -47.7813 299.326C-47.5133 299.574 -47.5133 299.961 -47.7813 300.209L-47.7817 300.209ZM-24.0772 279.614C-25.46 278.401 -27.3438 277.72 -29.3069 277.725C-31.255 277.729 -33.1212 278.409 -34.4922 279.614C-35.882 280.816 -36.6609 282.452 -36.6549 284.158C-36.659 285.863 -35.8805 287.5 -34.4922 288.703C-33.1182 289.903 -31.2535 290.58 -29.3069 290.585C-27.3452 290.589 -25.4629 289.911 -24.0772 288.703C-22.6977 287.495 -21.9232 285.861 -21.9232 284.158C-21.9232 282.455 -22.6977 280.821 -24.0772 279.614ZM-28.4553 283.249H-30.8551C-31.2642 283.249 -31.5958 282.96 -31.5958 282.604C-31.5958 282.248 -31.2642 281.96 -30.8551 281.96H-28.4549C-28.2586 281.96 -28.07 282.028 -27.9311 282.149C-27.7922 282.27 -27.7142 282.434 -27.7142 282.604C-27.7142 282.776 -27.7922 282.939 -27.9311 283.06C-28.07 283.181 -28.2586 283.249 -28.4549 283.249H-28.4553ZM-26.8552 281.231H-32.4552C-32.8643 281.231 -33.1958 280.943 -33.1958 280.587C-33.1958 280.231 -32.8643 279.942 -32.4552 279.942H-26.8548C-26.6586 279.942 -26.47 280.01 -26.3311 280.131C-26.1925 280.252 -26.1142 280.416 -26.1142 280.587C-26.1142 280.758 -26.1925 280.922 -26.3311 281.043C-26.47 281.164 -26.6586 281.231 -26.8548 281.231H-26.8552ZM-20.9292 276.887C-23.1386 274.954 -26.1451 273.873 -29.2771 273.883C-32.4095 273.873 -35.4158 274.954 -37.6253 276.887C-39.4165 278.455 -40.5817 280.482 -40.9481 282.67C-41.3149 284.858 -40.8643 287.09 -39.6624 289.038L-46.544 295.02L-41.7589 299.184L-34.885 293.202L-34.8847 293.202C-33.1633 294.015 -31.2355 294.438 -29.277 294.433C-26.1439 294.441 -23.1379 293.357 -20.9292 291.423C-18.7042 289.503 -17.4578 286.885 -17.4696 284.158C-17.467 281.426 -18.7237 278.806 -20.9585 276.887L-20.9292 276.887ZM-23.0034 289.611H-23.0031C-24.6619 291.066 -26.922 291.881 -29.2771 291.874C-31.6303 291.882 -33.8883 291.067 -35.5438 289.611C-37.2162 288.17 -38.1529 286.205 -38.144 284.158C-38.1525 282.108 -37.2159 280.141 -35.5438 278.698C-33.8865 277.245 -31.6296 276.43 -29.2771 276.435C-26.9228 276.43 -24.6638 277.245 -23.0031 278.698C-21.3494 280.15 -20.4239 282.115 -20.4293 284.16C-20.4348 286.205 -21.371 288.165 -23.0328 289.611L-23.0034 289.611ZM-109.248 350.58L-114.744 355.364H-114.743C-114.883 355.484 -115.073 355.552 -115.269 355.551C-115.38 355.551 -115.489 355.529 -115.588 355.486C-115.868 355.368 -116.034 355.111 -116.003 354.842L-115.655 352.069L-118.84 352.379V352.379C-119.15 352.406 -119.445 352.262 -119.581 352.018C-119.718 351.772 -119.661 351.477 -119.44 351.283L-113.944 346.5C-113.552 346.161 -113.053 345.931 -112.511 345.84C-111.968 345.749 -111.407 345.802 -110.899 345.991L-96.425 333.395L-99.7805 332.486H-99.7808C-100.091 332.404 -100.304 332.156 -100.306 331.873C-100.323 331.583 -100.113 331.319 -99.7955 331.229L-89.218 328.231H-88.7814L-88.663 328.27H-88.5965L-88.5002 328.341L-88.4186 328.425V328.457L-88.4182 328.457C-88.4153 328.476 -88.4153 328.495 -88.4182 328.515C-88.3958 328.546 -88.3807 328.582 -88.3737 328.618C-88.366 328.652 -88.366 328.687 -88.3737 328.721C-88.3697 328.756 -88.3697 328.79 -88.3737 328.824C-88.3701 328.861 -88.3701 328.898 -88.3737 328.934V328.992L-91.8182 338.197C-91.9215 338.474 -92.2247 338.656 -92.5588 338.642C-92.8786 338.638 -93.1594 338.456 -93.255 338.19L-94.2993 335.264L-108.707 347.931C-108.49 348.372 -108.428 348.859 -108.53 349.331C-108.631 349.803 -108.891 350.237 -109.277 350.58L-109.248 350.58ZM-79.9146 336.153H-79.9142C-79.9072 336.192 -79.9072 336.231 -79.9142 336.269C-79.9105 336.289 -79.9105 336.308 -79.9142 336.327L-83.4178 345.52C-83.5211 345.797 -83.8247 345.979 -84.1585 345.965C-84.4966 345.977 -84.8013 345.789 -84.8991 345.507L-85.9434 342.587L-100.351 355.189C-100.134 355.632 -100.074 356.12 -100.178 356.592C-100.282 357.064 -100.546 357.498 -100.936 357.839L-106.432 362.622C-106.57 362.741 -106.756 362.808 -106.951 362.809C-107.064 362.81 -107.175 362.788 -107.277 362.745C-107.557 362.627 -107.723 362.37 -107.691 362.1L-107.336 359.328L-110.521 359.631C-110.831 359.658 -111.127 359.514 -111.262 359.27C-111.399 359.024 -111.342 358.729 -111.121 358.535L-105.625 353.752C-105.229 353.423 -104.732 353.202 -104.195 353.112C-103.658 353.023 -103.102 353.071 -102.595 353.249L-88.1064 340.647L-91.4692 339.744C-91.7765 339.66 -91.9864 339.412 -91.9875 339.132C-92.004 338.841 -91.7945 338.577 -91.4766 338.487L-80.8991 335.489H-80.8325V335.49C-80.7906 335.483 -80.7484 335.483 -80.7065 335.49H-80.5881C-80.5488 335.483 -80.5087 335.483 -80.4694 335.49C-80.4286 335.499 -80.3889 335.512 -80.351 335.528H-80.2845C-80.2488 335.548 -80.2165 335.572 -80.1882 335.599C-80.157 335.624 -80.1297 335.652 -80.1066 335.683V335.741L-80.0621 335.837V335.838C-80.0592 335.872 -80.0592 335.907 -80.0621 335.941C-80.0066 336.004 -79.9662 336.076 -79.9438 336.154L-79.9146 336.153ZM-16.9003 330.571H-16.8999C-17.0352 330.327 -17.3311 330.183 -17.6406 330.21L-20.122 330.449L-19.8478 328.289V328.289C-19.8169 328.02 -19.9827 327.762 -20.2628 327.644C-20.5454 327.525 -20.884 327.574 -21.1071 327.767L-25.6627 331.731C-25.9877 332.021 -26.2104 332.386 -26.3049 332.782C-26.3997 333.178 -26.3618 333.59 -26.1961 333.968L-31.4332 338.526C-31.2553 338.661 -31.0627 338.79 -30.8851 338.932L-30.8848 338.932C-33.8933 336.472 -37.8678 335.104 -41.9958 335.109C-46.3177 335.109 -50.4627 336.603 -53.519 339.263C-56.575 341.922 -58.2919 345.529 -58.2919 349.291C-58.2919 353.052 -56.575 356.659 -53.519 359.319C-50.4627 361.978 -46.3176 363.473 -41.9958 363.473C-37.6735 363.473 -33.5289 361.978 -30.4726 359.319C-27.4166 356.659 -25.6997 353.052 -25.6997 349.291C-25.7012 346.014 -27.0105 342.84 -29.4033 340.311L-24.1515 335.741C-23.8747 335.833 -23.581 335.881 -23.2848 335.883C-22.646 335.884 -22.0328 335.664 -21.5811 335.27L-17.0255 331.312V331.312C-16.8156 331.108 -16.777 330.811 -16.9292 330.571L-16.9003 330.571ZM-42.0403 360.423C-45.4336 360.42 -48.6874 359.245 -51.0869 357.157C-53.4864 355.069 -54.8362 352.237 -54.8402 349.284C-54.8343 346.332 -53.4835 343.502 -51.0844 341.416C-48.6849 339.329 -45.4327 338.155 -42.0404 338.151C-38.8451 338.148 -35.7642 339.185 -33.4033 341.059C-33.2518 341.178 -33.1636 341.345 -33.1588 341.523C-33.1596 341.63 -33.1875 341.735 -33.2404 341.832C-33.1364 341.788 -33.0225 341.766 -32.9071 341.768C-32.7009 341.775 -32.5075 341.857 -32.3737 341.993C-30.3543 344.015 -29.2438 346.605 -29.2479 349.284C-29.2516 352.236 -30.6005 355.067 -32.9985 357.155C-35.3965 359.243 -38.648 360.418 -42.0404 360.423L-42.0403 360.423ZM-24.8111 333.574H-24.8107C-24.9974 333.265 -24.9349 332.885 -24.6552 332.633L-21.5959 329.971L-21.7069 330.88L-24.8111 333.574ZM-22.685 334.348V334.348C-22.9684 334.596 -23.4062 334.651 -23.759 334.484L-20.6627 331.795L-19.6257 331.692L-22.685 334.348ZM-43.0778 349.568H-43.0775C-43.1594 349.795 -43.091 350.043 -42.8996 350.213C-42.7044 350.379 -42.4199 350.438 -42.1589 350.367L-39.1368 349.51C-39.2077 350.14 -39.5429 350.726 -40.0785 351.156C-40.6141 351.585 -41.3124 351.827 -42.0406 351.837C-42.8265 351.837 -43.58 351.565 -44.1358 351.082C-44.6912 350.598 -45.0036 349.942 -45.0036 349.258C-45.0036 348.574 -44.6912 347.919 -44.1358 347.435C-43.58 346.951 -42.8265 346.68 -42.0406 346.68L-43.0778 349.568ZM-38.5372 346.042H-38.5369C-38.3682 346.078 -38.1895 346.063 -38.0329 345.997C-38.1116 346.132 -38.1325 346.287 -38.0925 346.435C-38.0282 346.654 -37.837 346.827 -37.5885 346.893L-36.1073 347.305L-38.6997 348.04L-41.211 348.743L-39.5294 344.23L-39.0552 345.558V345.558C-38.9968 345.792 -38.7943 345.978 -38.5296 346.042L-38.5372 346.042ZM-38.0113 344.205L-38.6556 342.4H-38.6552C-38.0432 342.628 -37.464 342.918 -36.9295 343.263L-38.0113 344.205ZM-42.0405 341.8C-41.4307 341.799 -40.8224 341.852 -40.2255 341.961L-41.544 345.468H-42.0402L-42.0405 345.468C-43.2193 345.468 -44.3496 345.875 -45.1832 346.601C-46.0165 347.326 -46.4848 348.31 -46.4848 349.336C-46.4848 350.362 -46.0165 351.345 -45.1832 352.071C-44.3496 352.796 -43.2193 353.203 -42.0405 353.203C-40.8618 353.203 -39.7311 352.796 -38.8979 352.071C-38.0642 351.345 -37.5959 350.362 -37.5959 349.336V349.155L-33.5365 348.008L-33.5368 348.008C-33.4479 348.446 -33.4034 348.89 -33.4034 349.336C-33.4229 351.316 -34.3422 353.21 -35.9606 354.602C-37.579 355.995 -39.7646 356.774 -42.0405 356.768C-44.3213 356.766 -46.5083 355.978 -48.122 354.575C-49.7355 353.172 -50.6439 351.269 -50.6479 349.284C-50.6439 347.299 -49.7356 345.396 -48.122 343.994C-46.5084 342.59 -44.3212 341.802 -42.0405 341.8ZM-35.9811 345.977L-34.9291 345.069L-34.9295 345.068C-34.5803 345.517 -34.2873 345.997 -34.0554 346.499L-35.9811 345.977ZM-33.0182 343.399V343.399C-31.5494 345.102 -30.7561 347.174 -30.7591 349.304C-30.7668 351.906 -31.9573 354.401 -34.0708 356.243C-36.1843 358.084 -39.0495 359.124 -42.0404 359.134C-45.0417 359.132 -47.9193 358.094 -50.0416 356.247C-52.1636 354.4 -53.3567 351.896 -53.3589 349.284C-53.3549 346.673 -52.1611 344.171 -50.0391 342.325C-47.9171 340.48 -45.0402 339.442 -42.0404 339.441C-39.4807 339.44 -36.9959 340.192 -34.9887 341.574L-35.8774 342.348V342.348C-37.6388 341.155 -39.8082 340.508 -42.0404 340.511C-44.7141 340.513 -47.2779 341.437 -49.1695 343.082C-51.061 344.727 -52.1254 346.957 -52.1291 349.284C-52.1254 351.611 -51.0609 353.842 -49.1695 355.486C-47.2779 357.131 -44.7141 358.056 -42.0404 358.057C-39.3671 358.056 -36.8041 357.131 -34.9141 355.486C-33.0236 353.841 -31.961 351.61 -31.9588 349.284C-31.9559 347.433 -32.6245 345.628 -33.8701 344.127L-33.0182 343.399ZM24.7596 353.068L24.7592 353.068C26.0762 353.068 27.3396 353.523 28.2713 354.333C29.2031 355.142 29.7277 356.241 29.7298 357.387V358.354H19.8261V357.387C19.8242 356.239 20.3469 355.137 21.279 354.324C22.2115 353.512 23.4767 353.055 24.7963 353.055L24.7596 353.068ZM39.1226 330.603V330.603C39.2627 330.482 39.3417 330.317 39.3417 330.145C39.3417 329.973 39.2627 329.808 39.1226 329.687L37.2264 328.037C37.0882 327.918 36.9022 327.851 36.7077 327.85C36.5107 327.849 36.3218 327.916 36.1818 328.037L25.7228 337.14H25.4857H23.5376L13.0411 328.025C12.7522 327.775 12.2857 327.775 11.9968 328.025L10.0932 329.675C9.95166 329.796 9.87154 329.96 9.87079 330.133C9.87154 330.305 9.95166 330.47 10.0932 330.59L21.6634 340.666C21.677 340.795 21.7072 340.923 21.752 341.046H17.0706C16.6777 341.046 16.3009 341.182 16.0231 341.424C15.7452 341.666 15.5893 341.994 15.5893 342.335V361.932C15.5893 362.274 15.7452 362.602 16.0231 362.844C16.3009 363.085 16.6777 363.221 17.0706 363.221H32.1893C32.5822 363.221 32.959 363.085 33.2369 362.844C33.5148 362.602 33.671 362.274 33.671 361.932V342.335C33.671 341.994 33.5148 341.666 33.2369 341.424C32.959 341.182 32.5822 341.046 32.1893 341.046H27.5006C27.5517 340.922 27.584 340.791 27.5969 340.66L39.1226 330.603ZM23.1449 340.362V338.97C23.1482 338.727 23.3305 338.514 23.5966 338.441C23.6606 338.432 23.7256 338.432 23.7892 338.441H25.508C25.5863 338.443 25.6642 338.456 25.7374 338.48C25.991 338.559 26.1597 338.768 26.1597 339.002V340.491C26.1597 340.642 26.091 340.786 25.9689 340.893C25.8465 340.999 25.6808 341.059 25.508 341.059H23.7672C23.4129 341.055 23.1269 340.806 23.1229 340.498L23.1449 340.362ZM31.2932 357.355V358.967V358.966C31.2932 359.138 31.2149 359.302 31.0763 359.422C30.9373 359.543 30.7488 359.611 30.5525 359.611H19.0858C18.6767 359.611 18.3448 359.322 18.3448 358.966V357.355C18.3448 355.349 19.5746 353.496 21.5709 352.492C23.5672 351.49 26.0266 351.49 28.0224 352.492C30.0187 353.496 31.2486 355.349 31.2486 357.355L31.2932 357.355ZM28.5154 347.905V347.905C28.5154 348.76 28.125 349.579 27.4304 350.184C26.736 350.789 25.7939 351.128 24.8114 351.128C23.8293 351.128 22.8872 350.789 22.1925 350.184C21.4982 349.579 21.1078 348.76 21.1078 347.905C21.1078 347.05 21.4982 346.23 22.1925 345.626C22.8872 345.021 23.8293 344.682 24.8114 344.682C25.7899 344.692 26.7239 345.039 27.4098 345.646C28.0953 346.254 28.4768 347.073 28.4709 347.924L28.5154 347.905ZM27.0341 347.905L27.0338 347.905C27.0338 348.418 26.7996 348.91 26.3828 349.272C25.9663 349.635 25.401 349.839 24.8114 349.839C24.2222 349.839 23.6569 349.635 23.2401 349.272C22.8237 348.91 22.5895 348.418 22.5895 347.905C22.5895 347.392 22.8237 346.9 23.2401 346.537C23.6569 346.175 24.2223 345.971 24.8114 345.971C25.397 345.981 25.9543 346.192 26.3622 346.558C26.7698 346.924 26.9951 347.415 26.9892 347.924L27.0341 347.905ZM-23.6844 389.355H-30.4473V383.102L-23.6844 389.355ZM-31.2622 390.76C-31.4783 390.762 -31.6864 390.689 -31.8408 390.557C-31.9948 390.425 -32.0826 390.245 -32.0844 390.057V382.586H-51.0253C-51.4344 382.586 -51.766 382.875 -51.766 383.231V416.106C-51.766 416.278 -51.6881 416.441 -51.5491 416.562C-51.4102 416.683 -51.2216 416.751 -51.0253 416.751H-24.1661C-23.9699 416.751 -23.7813 416.683 -23.6424 416.562C-23.5034 416.441 -23.4255 416.278 -23.4255 416.106V390.773L-31.2622 390.76ZM-47.2917 388.407H-33.4622C-33.2659 388.407 -33.0774 388.475 -32.9384 388.596C-32.7995 388.717 -32.7216 388.881 -32.7216 389.052C-32.7216 389.223 -32.7995 389.387 -32.9384 389.508C-33.0774 389.629 -33.2659 389.696 -33.4622 389.696H-47.2917C-47.7008 389.696 -48.0324 389.408 -48.0324 389.052C-48.0243 388.701 -47.6949 388.42 -47.2917 388.42V388.407ZM-35.0327 410.904H-47.2917C-47.7008 410.904 -48.0324 410.616 -48.0324 410.26C-48.0324 409.904 -47.7008 409.615 -47.2917 409.615H-35.0327C-34.836 409.615 -34.6479 409.683 -34.5089 409.804C-34.37 409.925 -34.2917 410.089 -34.2917 410.26C-34.288 410.433 -34.3641 410.6 -34.5034 410.724C-34.6427 410.848 -34.8335 410.917 -35.0327 410.917V410.904ZM-27.8993 410.904H-31.7436C-32.1527 410.904 -32.4843 410.616 -32.4843 410.26C-32.4843 409.904 -32.1527 409.615 -31.7436 409.615H-27.8993C-27.7026 409.615 -27.5144 409.683 -27.3755 409.804C-27.2365 409.925 -27.1586 410.089 -27.1586 410.26C-27.1546 410.433 -27.2307 410.6 -27.37 410.724C-27.5096 410.848 -27.7 410.917 -27.8993 410.917V410.904ZM-27.8993 406.746H-47.2918C-47.7009 406.746 -48.0325 406.458 -48.0325 406.102C-48.0325 405.746 -47.7009 405.457 -47.2918 405.457H-27.8993C-27.7026 405.457 -27.5144 405.525 -27.3755 405.646C-27.2365 405.767 -27.1586 405.931 -27.1586 406.102C-27.1546 406.275 -27.2307 406.442 -27.37 406.566C-27.5096 406.69 -27.7 406.759 -27.8993 406.759V406.746ZM-27.8993 402.582L-47.2918 402.582C-47.7009 402.582 -48.0325 402.293 -48.0325 401.937C-48.0325 401.581 -47.7009 401.293 -47.2918 401.293H-27.8993C-27.7026 401.293 -27.5144 401.361 -27.3755 401.482C-27.2365 401.602 -27.1586 401.767 -27.1586 401.937C-27.1546 402.111 -27.2307 402.278 -27.37 402.402C-27.5096 402.525 -27.7 402.595 -27.8993 402.595V402.582ZM-48.0324 397.78C-48.0324 397.424 -47.7008 397.135 -47.2917 397.135H-43.2249C-43.0286 397.135 -42.8401 397.203 -42.7011 397.324C-42.5622 397.445 -42.4843 397.609 -42.4843 397.78C-42.4843 397.95 -42.5622 398.115 -42.7011 398.235C-42.8401 398.356 -43.0286 398.424 -43.2249 398.424H-47.2917C-47.6949 398.424 -48.0243 398.143 -48.0324 397.792V397.78ZM-27.8993 398.424H-40.3804C-40.7895 398.424 -41.121 398.136 -41.121 397.78C-41.121 397.424 -40.7895 397.135 -40.3804 397.135H-27.8993C-27.7026 397.135 -27.5144 397.203 -27.3755 397.324C-27.2365 397.445 -27.1586 397.609 -27.1586 397.78C-27.1546 397.953 -27.2307 398.12 -27.37 398.244C-27.5096 398.368 -27.7 398.437 -27.8993 398.437V398.424ZM-27.8993 394.26H-47.2918C-47.7009 394.26 -48.0325 393.971 -48.0325 393.615C-48.0325 393.259 -47.7009 392.971 -47.2918 392.971H-27.8993C-27.7026 392.971 -27.5144 393.039 -27.3755 393.16C-27.2365 393.28 -27.1586 393.444 -27.1586 393.615C-27.1546 393.789 -27.2307 393.956 -27.37 394.08C-27.5096 394.203 -27.7 394.273 -27.8993 394.273V394.26ZM39.3522 383.302V387.911L32.034 382.644H38.5822C38.7837 382.637 38.9799 382.702 39.1251 382.823C39.2707 382.945 39.3527 383.113 39.3527 383.289L39.3522 383.302ZM37.7894 388.71H30.3079L30.9967 383.817L37.7894 388.71ZM28.545 389.89V389.89C28.3826 389.75 28.3032 389.552 28.3304 389.355L29.2787 382.631H10.6418C10.2326 382.631 9.90109 382.92 9.90109 383.276V388.091H11.8345H11.8342C12.305 388.091 12.7564 388.254 13.0887 388.545C13.4209 388.835 13.6066 389.229 13.6047 389.638V389.883V389.883C13.6047 390.293 13.4184 390.685 13.0865 390.975C12.7549 391.265 12.3046 391.429 11.8341 391.43H9.90106V397.993H11.8345H11.8341C12.3046 397.994 12.7549 398.158 13.0865 398.448C13.4184 398.738 13.6047 399.131 13.6047 399.54V399.798C13.6047 400.207 13.4184 400.599 13.0865 400.89C12.7549 401.179 12.3047 401.343 11.8341 401.345H9.90108V407.894H11.8345H11.8341C12.3046 407.896 12.7549 408.06 13.0865 408.35C13.4184 408.639 13.6048 409.032 13.6048 409.441V409.686V409.686C13.6066 410.096 13.421 410.49 13.0887 410.78C12.7564 411.07 12.305 411.233 11.8342 411.233H9.90112V416.049C9.90112 416.22 9.97905 416.384 10.118 416.505C10.2569 416.625 10.4451 416.693 10.6418 416.693H38.6123C38.8089 416.693 38.9971 416.625 39.136 416.505C39.275 416.384 39.3533 416.22 39.3533 416.049V390.154H29.2566C28.9934 390.155 28.7398 390.07 28.5454 389.915L28.545 389.89ZM33.4487 410.64L15.8045 410.64C15.3954 410.64 15.0639 410.352 15.0639 409.996C15.0639 409.64 15.3954 409.351 15.8045 409.351H33.4487C33.8578 409.351 34.1894 409.64 34.1894 409.996C34.1894 410.352 33.8578 410.64 33.4487 410.64V410.64ZM33.4487 404.955L15.8045 404.955C15.3954 404.955 15.0639 404.666 15.0639 404.31C15.0639 403.954 15.3954 403.665 15.8045 403.665H33.4487C33.8578 403.665 34.1894 403.954 34.1894 404.31C34.1894 404.666 33.8578 404.955 33.4487 404.955V404.955ZM33.4487 399.263L15.8045 399.262C15.3954 399.262 15.0639 398.974 15.0639 398.618C15.0639 398.262 15.3954 397.973 15.8045 397.973H33.4487C33.8578 397.973 34.1894 398.262 34.1894 398.618C34.1894 398.974 33.8578 399.262 33.4487 399.262V399.263ZM34.1894 392.932V392.932C34.1894 393.103 34.1115 393.267 33.9725 393.388C33.8336 393.509 33.6454 393.577 33.4487 393.577H15.8045C15.3954 393.577 15.0639 393.288 15.0639 392.932C15.0639 392.576 15.3954 392.287 15.8045 392.287H33.4487C33.6505 392.287 33.8435 392.359 33.9832 392.485C34.1232 392.612 34.1975 392.783 34.1894 392.958V392.932ZM-79.4051 441.047H-120.235H-120.235C-120.644 441.047 -120.976 441.336 -120.976 441.692V465.892C-120.976 466.063 -120.897 466.227 -120.758 466.348C-120.619 466.468 -120.431 466.536 -120.235 466.536H-79.4048C-79.2085 466.536 -79.0199 466.468 -78.881 466.348C-78.7424 466.227 -78.6641 466.063 -78.6641 465.892V441.718C-78.6641 441.547 -78.7424 441.383 -78.881 441.262C-79.0199 441.141 -79.2085 441.073 -79.4048 441.073L-79.4051 441.047ZM-109.235 458.452H-109.235C-109.503 458.35 -109.677 458.12 -109.679 457.865V456.196L-116.346 461.488C-116.482 461.596 -116.658 461.656 -116.842 461.656C-117.051 461.656 -117.25 461.578 -117.39 461.443C-117.666 461.181 -117.646 460.775 -117.346 460.534L-109.442 454.262C-109.225 454.089 -108.912 454.043 -108.642 454.146C-108.374 454.251 -108.203 454.483 -108.205 454.739V456.402L-93.8938 445.096L-95.3085 445.347H-95.3089C-95.707 445.414 -96.0937 445.19 -96.1753 444.844C-96.2146 444.677 -96.176 444.503 -96.0676 444.36C-95.9592 444.217 -95.7901 444.118 -95.5978 444.084L-91.7535 443.401L-91.7531 443.4C-91.5116 443.358 -91.2617 443.424 -91.0867 443.574C-90.9128 443.724 -90.8353 443.939 -90.879 444.148L-91.5384 447.255C-91.6035 447.565 -91.917 447.789 -92.2791 447.784H-92.4125C-92.8124 447.719 -93.0771 447.385 -93.0051 447.036L-92.7753 445.959L-108.472 458.414C-108.685 458.568 -108.98 458.605 -109.235 458.511L-109.235 458.452ZM-82.0427 446.681L-82.6944 449.788C-82.7594 450.099 -83.073 450.322 -83.435 450.317H-83.5685C-83.9684 450.252 -84.233 449.918 -84.161 449.569L-83.9312 448.493L-99.6568 460.908C-99.8748 461.079 -100.189 461.122 -100.457 461.018C-100.725 460.916 -100.899 460.686 -100.901 460.431V458.761L-107.568 464.054C-107.704 464.161 -107.881 464.221 -108.064 464.221C-108.273 464.221 -108.472 464.144 -108.612 464.009C-108.886 463.745 -108.863 463.339 -108.56 463.1L-100.664 456.827C-100.448 456.654 -100.134 456.608 -99.8642 456.711C-99.5988 456.815 -99.4279 457.045 -99.4271 457.298V458.974L-85.0942 447.609L-86.509 447.86H-86.5093C-86.7016 447.895 -86.9019 447.861 -87.0658 447.767C-87.2298 447.672 -87.3441 447.525 -87.3834 447.357C-87.4227 447.19 -87.3838 447.016 -87.2753 446.873C-87.1669 446.73 -86.9978 446.631 -86.8056 446.597L-82.9612 445.914C-82.7194 445.871 -82.4694 445.937 -82.2945 446.088C-82.0971 446.233 -82.0015 446.458 -82.0427 446.681L-82.0427 446.681ZM-46.0504 25.1688L-42.7838 27.9792L-51.9024 35.8824C-51.9608 35.9326 -52.0281 35.9742 -52.1023 36.0049L-56.3393 37.7905C-56.4385 37.8324 -56.5473 37.8545 -56.6576 37.8551C-56.8546 37.8561 -57.0439 37.7889 -57.1836 37.6683C-57.4049 37.4738 -57.4615 37.1795 -57.3244 36.9332L-55.2726 33.2461C-55.2369 33.1818 -55.1895 33.1229 -55.1318 33.072L-46.0504 25.1688ZM-18.6953 18.2841L-19.1176 18.6452C-19.6958 19.151 -20.4832 19.4344 -21.3028 19.4315C-22.1178 19.4309 -22.8985 19.1478 -23.4733 18.6452L-24.9546 17.3881L-33.8954 9.61377L-35.3766 8.32468H-35.377C-35.9541 7.82184 -36.2783 7.14017 -36.2783 6.42937C-36.2783 5.71858 -35.9541 5.03694 -35.377 4.53407L-34.962 4.16653V4.16685C-34.3842 3.66432 -33.6009 3.38219 -32.7841 3.38219C-31.9674 3.38219 -31.1841 3.66432 -30.6066 4.16685L-18.755 14.4807V14.4804C-18.1655 14.9768 -17.8277 15.6575 -17.8163 16.3715C-17.8052 17.0855 -18.1217 17.7735 -18.6959 18.2838L-18.6953 18.2841ZM-26.1841 18.484L-33.9619 25.259L-30.5398 28.2437C-29.9579 28.7411 -29.6323 29.4225 -29.6363 30.1322C-29.6326 30.844 -29.9583 31.5272 -30.5398 32.0276L-30.9548 32.3951C-31.5374 32.9027 -32.3298 33.1862 -33.1547 33.1814C-33.9718 33.181 -34.7551 32.8979 -35.3326 32.3951L-35.4954 32.2467L-51.2586 18.4902C-51.778 17.9794 -52.0537 17.315 -52.0287 16.6333C-52.0041 15.9514 -51.681 15.3036 -51.1256 14.8222L-50.7032 14.4611V14.4614C-50.128 13.9553 -49.3433 13.6719 -48.5254 13.6748C-47.7079 13.6726 -46.9232 13.956 -46.3475 14.4614L-42.9254 17.4394L-35.1404 10.6708L-26.1841 18.484ZM-26.4881 74.7733C-26.3613 74.7733 -26.2584 74.8626 -26.2584 74.9729C-26.2584 75.0833 -26.3613 75.1728 -26.4881 75.1728C-26.6149 75.1728 -26.7178 75.0833 -26.7178 74.9729C-26.7178 74.9201 -26.6936 74.8693 -26.6506 74.8319C-26.6072 74.7941 -26.5488 74.7733 -26.4881 74.7733ZM-28.5251 74.7218V75.2247C-28.5251 76.3592 -27.2361 77.2875 -25.6511 77.2875H-17.5028V72.6657H-25.6511C-27.2732 72.6781 -28.5619 73.6 -28.5619 74.7347L-28.5251 74.7218ZM-25.2361 74.9732V74.9729C-25.2361 75.5746 -25.7967 76.0624 -26.4881 76.0624C-26.8208 76.064 -27.1402 75.9498 -27.3754 75.7454C-27.6107 75.5407 -27.7419 75.2624 -27.7401 74.9729C-27.7316 74.3764 -27.1736 73.8965 -26.4881 73.8965C-25.811 73.9138 -25.2729 74.3965 -25.2733 74.9861L-25.2361 74.9732ZM-17.4804 78.5767V84.591H-17.4808C-17.4808 84.9329 -17.6367 85.2608 -17.9145 85.5026C-18.1924 85.7444 -18.5692 85.8801 -18.9621 85.8801H-47.2281V63.6531H-18.9913H-18.9917C-18.5987 63.6531 -18.2216 63.7887 -17.9441 64.0306C-17.6662 64.2724 -17.51 64.6003 -17.51 64.9422V71.3884H-25.6583C-28.2361 71.3884 -30.3323 72.8906 -30.3323 74.734V75.2368C-30.3323 77.087 -28.2361 78.5888 -25.6583 78.5888L-17.4804 78.5767ZM-48.7105 63.6533H-56.3548C-57.087 63.6533 -57.6806 64.1699 -57.6806 64.8071V84.7388C-57.6806 85.376 -57.087 85.8926 -56.3548 85.8926H-48.7105V63.6533ZM-52.0807 83.9592H-54.7179C-55.127 83.9592 -55.4586 83.6707 -55.4586 83.3147V80.9808C-55.4586 80.6248 -55.127 80.3363 -54.7179 80.3363C-54.5213 80.3363 -54.3327 80.4041 -54.1941 80.525C-54.0552 80.6459 -53.9769 80.81 -53.9769 80.9808V82.6698H-52.0807C-51.8844 82.6698 -51.6958 82.7379 -51.5569 82.8588C-51.4179 82.9794 -51.34 83.1435 -51.34 83.3147C-51.34 83.4855 -51.4179 83.6496 -51.5569 83.7705C-51.6958 83.8911 -51.8844 83.9592 -52.0807 83.9592ZM-111.999 523.979V523.978C-111.999 524.369 -111.821 524.743 -111.505 525.02C-111.188 525.296 -110.759 525.453 -110.31 525.455H-89.3321H-89.3325C-88.8837 525.453 -88.4543 525.296 -88.1375 525.02C-87.821 524.743 -87.6435 524.369 -87.6435 523.978V498.29H-111.999L-111.999 523.979ZM-95.199 502.706V502.705C-95.199 502.349 -94.8674 502.061 -94.4583 502.061C-94.262 502.061 -94.0735 502.129 -93.9345 502.249C-93.7956 502.37 -93.7177 502.534 -93.7177 502.705V518.673C-93.7177 518.844 -93.7956 519.008 -93.9345 519.129C-94.0735 519.249 -94.262 519.317 -94.4583 519.317C-94.8674 519.317 -95.199 519.029 -95.199 518.673V502.706ZM-100.562 502.706L-100.562 502.705C-100.562 502.349 -100.23 502.061 -99.8211 502.061C-99.6248 502.061 -99.4363 502.129 -99.2973 502.249C-99.1584 502.37 -99.0805 502.534 -99.0805 502.705V518.673C-99.0805 518.844 -99.1584 519.008 -99.2973 519.129C-99.4363 519.249 -99.6248 519.317 -99.8211 519.317C-100.23 519.317 -100.562 519.029 -100.562 518.673L-100.562 502.706ZM-105.925 502.706L-105.925 502.705C-105.925 502.349 -105.593 502.061 -105.184 502.061C-104.988 502.061 -104.799 502.129 -104.661 502.249C-104.522 502.37 -104.443 502.534 -104.443 502.705V518.673C-104.443 518.844 -104.522 519.008 -104.661 519.129C-104.799 519.249 -104.988 519.317 -105.184 519.317C-105.593 519.317 -105.925 519.029 -105.925 518.673L-105.925 502.706ZM-83.7025 495.447H-83.7029C-83.7047 495.92 -83.9216 496.373 -84.3061 496.708C-84.6902 497.042 -85.211 497.231 -85.7547 497.233H-113.903C-114.447 497.231 -114.967 497.042 -115.352 496.708C-115.736 496.373 -115.953 495.92 -115.955 495.447C-115.955 494.973 -115.739 494.519 -115.354 494.184C-114.969 493.849 -114.447 493.661 -113.903 493.661H-105.947V491.083C-105.947 490.727 -105.616 490.438 -105.207 490.438H-94.4806H-94.4809C-94.2843 490.438 -94.0957 490.506 -93.9572 490.627C-93.8182 490.748 -93.7399 490.912 -93.7399 491.083V493.661H-85.7475C-85.202 493.665 -84.6804 493.857 -84.2982 494.196C-83.916 494.534 -83.7046 494.991 -83.7104 495.466L-83.7025 495.447ZM-19.8216 493.062C-21.3794 491.789 -23.5498 491.253 -25.6435 491.624C-28.043 491.993 -30.2469 493.013 -31.9399 494.538C-33.9171 496.176 -35.1393 498.386 -35.377 500.752L-42.3325 506.799L-43.3103 505.948C-44.6174 504.812 -46.3891 504.174 -48.2361 504.174C-50.0835 504.174 -51.8552 504.812 -53.1623 505.948L-54.2587 506.902L-36.9994 521.922L-35.9029 520.968H-35.9026C-34.6183 519.839 -33.8942 518.316 -33.8857 516.728C-33.8776 515.139 -34.5855 513.611 -35.8584 512.472L-29.1918 506.638H-29.1915C-26.3112 506.531 -23.5911 505.453 -21.6063 503.634C-17.7252 500.301 -16.9622 495.563 -19.8214 493.062L-19.8216 493.062ZM-25.7476 496.02C-26.8297 495.965 -27.8857 496.326 -28.6363 497.007C-29.4339 497.677 -29.8445 498.624 -29.7548 499.585C-29.7342 499.757 -29.793 499.928 -29.9184 500.061C-30.0433 500.194 -30.2246 500.278 -30.4216 500.294H-30.4958H-30.4955C-30.8748 500.297 -31.1946 500.049 -31.2361 499.721C-31.3706 498.372 -30.8024 497.042 -29.6883 496.098C-28.6301 495.153 -27.1495 494.658 -25.6363 494.744C-25.4396 494.757 -25.2573 494.838 -25.129 494.969C-25.0011 495.1 -24.9386 495.269 -24.9548 495.441C-24.9941 495.789 -25.3458 496.047 -25.7476 496.02ZM-55.1624 507.688L-37.9031 522.708L-39.3624 523.978C-39.6542 524.238 -40.0552 524.385 -40.4735 524.384C-40.8918 524.386 -41.2932 524.239 -41.5844 523.978L-56.6287 510.892H-56.629C-56.9249 510.637 -57.0903 510.288 -57.0881 509.925C-57.0885 509.563 -56.9235 509.215 -56.629 508.958L-55.5477 508.017L-55.1624 507.688ZM30.63 499.952H18.6298L17.015 517.248C16.9978 517.415 17.0562 517.582 17.1779 517.712L24.0518 524.971H24.0522C24.1948 525.12 24.4069 525.205 24.63 525.203C24.8502 525.203 25.0593 525.118 25.2005 524.971L32.067 517.712C32.1887 517.582 32.2471 517.415 32.2299 517.248L30.63 499.952ZM22.4005 515.359C22.4005 515.715 22.069 516.003 21.6599 516.003C21.2508 516.003 20.9189 515.715 20.9189 515.359V503.072C20.9189 502.716 21.2508 502.428 21.6599 502.428C22.069 502.428 22.4005 502.716 22.4005 503.072V515.359ZM18.5562 498.676L17.0304 491.462L17.03 491.462C16.9914 491.274 17.0513 491.08 17.1932 490.934C17.334 490.787 17.5432 490.702 17.7637 490.702H31.4897C31.7099 490.702 31.919 490.787 32.0602 490.934C32.2017 491.08 32.2616 491.274 32.223 491.462L30.7417 498.676L18.5562 498.676ZM41.1189 441.916C39.5806 440.565 37.4828 439.807 35.2966 439.815C33.1092 439.811 31.0104 440.567 29.467 441.916C29.2358 442.12 29.0182 442.335 28.8153 442.561L26.4819 440.531C26.3426 440.408 26.1533 440.34 25.9559 440.34C25.7586 440.34 25.5693 440.408 25.43 440.531L7.28891 456.305C7.17018 456.407 7.09445 456.541 7.07425 456.685L5.72601 466.355V466.354C5.67713 466.721 5.8113 467.088 6.0947 467.363C6.37809 467.638 6.78315 467.794 7.20731 467.792H7.39256L18.5036 466.612C18.6683 466.596 18.8223 466.533 18.9406 466.432L33.2886 453.939C33.9477 454.082 34.6239 454.155 35.3032 454.158C37.4891 454.156 39.5843 453.399 41.1292 452.053C42.6737 450.708 43.5408 448.883 43.5401 446.981C43.5397 445.079 42.6711 443.255 41.1255 441.91L41.1189 441.916ZM14.6822 454.409L10.6007 457.968L10.0302 462.061C9.98503 462.386 9.66635 462.63 9.2896 462.628H9.20064C8.79631 462.585 8.5085 462.265 8.55627 461.913L9.15616 457.594C9.17821 457.452 9.25394 457.32 9.37119 457.22L13.638 453.507C13.7721 453.37 13.9655 453.289 14.172 453.282C14.3782 453.275 14.5782 453.343 14.7241 453.47C14.87 453.597 14.9487 453.771 14.9406 453.951C14.9325 454.13 14.8392 454.299 14.6822 454.416L14.6822 454.409ZM27.5858 451.528C26.6897 451.528 25.8307 451.218 25.1973 450.667C24.5636 450.115 24.2078 449.368 24.2078 448.588C24.2078 447.809 24.5636 447.061 25.1973 446.509C25.8306 445.958 26.6896 445.649 27.5858 445.649C28.4815 445.649 29.3405 445.958 29.9742 446.509C30.6076 447.061 30.9634 447.809 30.9634 448.588C30.9634 449.368 30.6076 450.115 29.9742 450.667C29.3406 451.218 28.4816 451.528 27.5858 451.528ZM40.0452 451.154C38.5981 452.406 36.5779 453.022 34.549 452.83L37.0451 450.657C37.1837 450.536 37.2612 450.371 37.2601 450.2C37.2612 450.029 37.1837 449.864 37.0451 449.742L29.8676 443.496C30.0636 443.269 30.2764 443.054 30.5046 442.851C31.7651 441.717 33.4963 441.071 35.3092 441.058C37.122 441.045 38.8654 441.666 40.1475 442.781C41.4292 443.897 42.143 445.414 42.1279 446.992C42.1129 448.57 41.3704 450.076 40.0674 451.173L40.0452 451.154ZM-57.995 442.851C-57.9931 442.323 -57.7513 441.818 -57.3223 441.444C-56.8934 441.071 -56.3127 440.861 -55.7061 440.859H-19.4983C-18.8918 440.861 -18.3107 441.071 -17.8821 441.444C-17.4531 441.818 -17.2113 442.323 -17.2095 442.851C-17.2201 443.319 -17.4193 443.77 -17.7729 444.123C-18.1262 444.477 -18.611 444.711 -19.1429 444.785H-56.0611V444.856C-56.6066 444.78 -57.1024 444.535 -57.4575 444.167C-57.8126 443.799 -58.0034 443.332 -57.9945 442.851H-57.995ZM-20.3428 459.418V445.275H-54.8615V459.418H-20.3428ZM-47.9275 447.699H-47.9278C-47.9278 447.414 -47.6625 447.183 -47.3353 447.183C-47.178 447.183 -47.0273 447.238 -46.9163 447.334C-46.8049 447.431 -46.7424 447.562 -46.7424 447.699V456.576H-43.4685V449.659C-43.4685 449.521 -43.4049 449.389 -43.2924 449.292C-43.1796 449.195 -43.0271 449.141 -42.8686 449.143C-42.7113 449.143 -42.5606 449.197 -42.4496 449.294C-42.3382 449.391 -42.2761 449.522 -42.2761 449.659V456.576H-39.7648V452.27C-39.7648 452.132 -39.7012 452 -39.5888 451.903C-39.4759 451.806 -39.3234 451.752 -39.165 451.754C-39.0076 451.754 -38.8569 451.808 -38.7459 451.905C-38.6346 452.002 -38.5721 452.133 -38.5721 452.27V456.576H-36.0608V453.578H-36.0612C-36.0612 453.44 -35.9976 453.308 -35.8847 453.211C-35.7723 453.114 -35.6193 453.061 -35.4609 453.063C-35.304 453.063 -35.1533 453.117 -35.0419 453.214C-34.9309 453.31 -34.8684 453.442 -34.8684 453.578V456.576H-32.3571V454.887C-32.3575 454.749 -32.2939 454.617 -32.1811 454.52C-32.0682 454.423 -31.9157 454.369 -31.7573 454.371C-31.6003 454.371 -31.4496 454.425 -31.3382 454.522C-31.2272 454.619 -31.1647 454.75 -31.1647 454.887V456.576H-27.8684C-27.71 456.574 -27.5574 456.628 -27.4446 456.724C-27.3318 456.821 -27.2685 456.953 -27.2685 457.091C-27.2685 457.38 -27.5372 457.614 -27.8684 457.614H-47.3353C-47.4937 457.614 -47.6455 457.558 -47.7569 457.46C-47.8683 457.362 -47.9296 457.229 -47.9278 457.091L-47.9275 447.699ZM-19.5938 459.947H-55.6087C-56.2262 459.947 -56.8213 460.15 -57.2752 460.514C-57.7398 460.876 -58.0085 461.39 -58.0159 461.932C-58.0045 462.471 -57.7475 462.985 -57.3017 463.359C-56.8558 463.734 -56.2578 463.939 -55.638 463.931H-42.5415C-42.3335 464.742 -41.8101 465.466 -41.0599 465.981C-40.3097 466.495 -39.3783 466.768 -38.423 466.754C-37.467 466.768 -36.5348 466.496 -35.7831 465.981C-35.0314 465.467 -34.5066 464.743 -34.297 463.931H-19.6225H-19.6229C-19.0046 463.932 -18.4088 463.73 -17.9559 463.363C-17.4876 462.999 -17.2186 462.479 -17.2153 461.932C-17.227 461.394 -17.484 460.881 -17.9298 460.508C-18.3761 460.134 -18.9741 459.93 -19.5931 459.941L-19.5938 459.947ZM-38.3935 465.465H-38.3939C-38.9552 465.475 -39.5061 465.332 -39.9708 465.057C-40.435 464.782 -40.7901 464.389 -40.9864 463.931H-35.8011C-35.9996 464.387 -36.3554 464.778 -36.8193 465.052C-37.2835 465.325 -37.8334 465.467 -38.3939 465.458L-38.3935 465.465ZM-85.8601 389.347H-113.408V387.819C-113.406 387.295 -113.166 386.793 -112.74 386.422C-112.314 386.051 -111.736 385.842 -111.134 385.84H-88.1337C-87.5312 385.842 -86.9538 386.051 -86.5278 386.422C-86.1018 386.793 -85.8614 387.295 -85.8596 387.819L-85.8601 389.347ZM-80.7491 391.159V396.071H-97.4533V395.555C-97.4533 395.384 -97.5312 395.22 -97.6701 395.099C-97.8091 394.978 -97.9973 394.91 -98.1939 394.91H-101.453C-101.862 394.91 -102.194 395.199 -102.194 395.555V396.071H-118.898V391.159C-118.898 390.803 -118.566 390.514 -118.157 390.514H-81.4904C-81.2941 390.514 -81.1055 390.582 -80.9666 390.703C-80.8276 390.824 -80.7497 390.987 -80.7497 391.159H-80.7491ZM-97.4533 397.882C-97.4533 398.053 -97.5312 398.217 -97.6701 398.338C-97.8091 398.458 -97.9973 398.527 -98.1939 398.527H-101.453C-101.862 398.527 -102.194 398.238 -102.194 397.882V397.237H-118.898V412.257V412.257C-118.879 412.588 -118.715 412.899 -118.439 413.128C-118.163 413.356 -117.797 413.483 -117.416 413.482H-82.2907H-82.2911C-81.9106 413.483 -81.5445 413.356 -81.2689 413.128C-80.9928 412.899 -80.8285 412.588 -80.8094 412.257V397.237H-97.4543L-97.4533 397.882ZM-111.26 411.477H-115.09H-115.089C-115.469 411.477 -115.834 411.351 -116.11 411.125C-116.385 410.898 -116.55 410.588 -116.571 410.259V406.887C-116.571 406.531 -116.24 406.243 -115.831 406.243C-115.634 406.243 -115.446 406.311 -115.307 406.431C-115.168 406.552 -115.09 406.716 -115.09 406.887V410.181H-111.238C-111.041 410.181 -110.853 410.25 -110.714 410.37C-110.575 410.491 -110.497 410.655 -110.497 410.826C-110.495 411.002 -110.575 411.17 -110.719 411.293C-110.863 411.416 -111.058 411.482 -111.26 411.477ZM-79.7422 287.981H-119.905V286.937H-119.905C-119.903 285.301 -119.155 283.733 -117.826 282.577C-116.497 281.42 -114.695 280.769 -112.816 280.768H-111.438V278.112H-111.438C-111.438 277.761 -111.278 277.425 -110.993 277.177C-110.709 276.929 -110.322 276.79 -109.92 276.79C-109.523 276.799 -109.147 276.942 -108.87 277.189C-108.593 277.435 -108.438 277.767 -108.438 278.112V280.768H-91.2824V278.112C-91.2824 277.767 -91.1277 277.435 -90.8509 277.189C-90.5737 276.942 -90.197 276.799 -89.8008 276.79C-89.3983 276.79 -89.012 276.929 -88.7271 277.177C-88.4422 277.425 -88.2823 277.761 -88.2823 278.112V280.768H-86.9047C-85.0249 280.769 -83.2231 281.42 -81.894 282.577C-80.5652 283.733 -79.8176 285.301 -79.8157 286.937L-79.7422 287.981ZM-119.905 289.27L-119.905 301.034C-119.903 302.33 -119.311 303.572 -118.258 304.488C-117.205 305.404 -115.779 305.919 -114.29 305.921H-85.3568C-83.8682 305.919 -82.4413 305.404 -81.3886 304.488C-80.3362 303.572 -79.744 302.33 -79.7419 301.034V289.27H-119.905ZM-114.112 291.017H-92.9122C-92.7159 291.017 -92.5274 291.085 -92.3884 291.206C-92.2495 291.327 -92.1716 291.491 -92.1716 291.662C-92.1716 291.833 -92.2495 291.997 -92.3884 292.118C-92.5274 292.239 -92.7159 292.307 -92.9122 292.307H-114.112C-114.521 292.307 -114.853 292.018 -114.853 291.662C-114.853 291.306 -114.521 291.017 -114.112 291.017ZM-93.1569 302.904H-114.09C-114.499 302.904 -114.83 302.616 -114.83 302.259C-114.83 301.903 -114.499 301.615 -114.09 301.615H-93.1569C-92.9606 301.615 -92.772 301.683 -92.6331 301.804C-92.4941 301.925 -92.4162 302.089 -92.4162 302.259C-92.4162 302.431 -92.4941 302.594 -92.6331 302.715C-92.772 302.836 -92.9606 302.904 -93.1569 302.904ZM-114.831 298.727V298.727C-114.831 298.371 -114.5 298.082 -114.091 298.082H-109.12C-108.924 298.082 -108.736 298.15 -108.597 298.271C-108.458 298.392 -108.379 298.556 -108.379 298.727C-108.379 298.898 -108.458 299.062 -108.597 299.183C-108.736 299.304 -108.924 299.372 -109.12 299.372H-114.091C-114.291 299.377 -114.485 299.311 -114.629 299.19C-114.772 299.068 -114.854 298.901 -114.854 298.727L-114.831 298.727ZM-85.5133 302.904H-90.4835C-90.8927 302.904 -91.2242 302.616 -91.2242 302.259C-91.2242 301.903 -90.8927 301.615 -90.4835 301.615H-85.5133C-85.317 301.615 -85.1285 301.683 -84.9895 301.804C-84.8506 301.925 -84.7727 302.089 -84.7727 302.259C-84.7723 302.434 -84.8535 302.601 -84.9972 302.722C-85.141 302.844 -85.3354 302.909 -85.5354 302.904H-85.5133ZM-85.5133 299.371H-106.846V299.372C-107.255 299.372 -107.587 299.083 -107.587 298.727C-107.587 298.371 -107.255 298.082 -106.846 298.082H-85.5133C-85.317 298.082 -85.1285 298.15 -84.9895 298.271C-84.8506 298.392 -84.7727 298.556 -84.7727 298.727C-84.7723 298.901 -84.8535 299.068 -84.9972 299.19C-85.141 299.311 -85.3354 299.377 -85.5354 299.372L-85.5133 299.371ZM-85.5133 295.839H-114.091V295.839C-114.5 295.839 -114.831 295.55 -114.831 295.194C-114.831 294.838 -114.5 294.55 -114.091 294.55H-85.5133C-85.317 294.55 -85.1285 294.618 -84.9895 294.739C-84.8506 294.859 -84.7727 295.024 -84.7727 295.194C-84.7723 295.369 -84.8535 295.536 -84.9972 295.657C-85.141 295.779 -85.3354 295.844 -85.5354 295.839L-85.5133 295.839ZM-85.5133 292.306H-90.4835V292.306C-90.8927 292.306 -91.2242 292.018 -91.2242 291.662C-91.2242 291.306 -90.8927 291.017 -90.4835 291.017H-85.5133C-85.317 291.017 -85.1285 291.085 -84.9895 291.206C-84.8506 291.327 -84.7727 291.491 -84.7727 291.662C-84.7723 291.836 -84.8535 292.003 -84.9972 292.124C-85.141 292.246 -85.3354 292.312 -85.5354 292.306L-85.5133 292.306ZM-18.3428 242.18C-18.3527 241.206 -18.8026 240.274 -19.5954 239.587C-20.3882 238.899 -21.4604 238.511 -22.5797 238.506H-45.6317V223.931C-45.6335 223.117 -46.0066 222.336 -46.6689 221.761C-47.3313 221.186 -48.2289 220.863 -49.1647 220.863H-54.4389C-55.0873 220.863 -55.7089 221.087 -56.1672 221.486C-56.6256 221.885 -56.8832 222.426 -56.8832 222.99C-56.8799 223.506 -56.6645 224.005 -56.276 224.395C-55.8923 224.775 -55.3681 225.026 -54.7944 225.104L-51.6907 225.465V247.473C-51.6907 247.644 -51.6127 247.808 -51.4738 247.929C-51.3348 248.05 -51.1463 248.117 -50.95 248.117H-49.7499C-49.8767 248.497 -49.9414 248.889 -49.9425 249.284C-49.9407 250.422 -49.4202 251.514 -48.4954 252.318C-47.5706 253.123 -46.3172 253.576 -45.0093 253.577C-43.7016 253.576 -42.4477 253.123 -41.5229 252.318C-40.5981 251.514 -40.0781 250.423 -40.0758 249.284C-40.0773 248.889 -40.142 248.497 -40.2684 248.117H-28.7132H-28.7136C-28.84 248.497 -28.9047 248.889 -28.9058 249.284C-28.904 250.422 -28.3835 251.514 -27.4591 252.318C-26.5343 253.123 -25.2805 253.576 -23.9727 253.577C-22.6656 253.576 -21.4126 253.123 -20.4892 252.318C-19.5655 251.513 -19.0469 250.422 -19.0469 249.284C-19.0472 248.525 -19.2799 247.78 -19.721 247.125C-18.8451 246.428 -18.3456 245.444 -18.3429 244.411L-18.3428 242.18ZM-45.009 252.288C-45.9243 252.288 -46.8024 251.971 -47.4497 251.408C-48.097 250.844 -48.4609 250.081 -48.4609 249.284C-48.4617 248.762 -48.3058 248.248 -48.0088 247.795C-47.596 247.171 -46.9384 246.697 -46.157 246.46C-45.7894 246.344 -45.4005 246.285 -45.0091 246.286C-43.7829 246.293 -42.6537 246.868 -42.0461 247.795C-41.7469 248.248 -41.5889 248.761 -41.5867 249.284C-41.5867 250.07 -41.941 250.826 -42.5739 251.388C-43.2073 251.949 -44.0681 252.272 -44.9719 252.288L-45.009 252.288ZM-23.9717 252.288C-24.8873 252.288 -25.7651 251.971 -26.4124 251.408C-27.06 250.844 -27.4235 250.081 -27.4235 249.284C-27.425 248.761 -27.2666 248.247 -26.9644 247.795C-26.3565 246.868 -25.2273 246.293 -24.0015 246.286C-22.962 246.281 -21.9769 246.689 -21.3274 247.395C-20.8393 247.932 -20.5776 248.599 -20.5864 249.284C-20.586 250.065 -20.9356 250.816 -21.5605 251.377C-22.1857 251.937 -23.0374 252.264 -23.9346 252.288L-23.9717 252.288ZM-23.9717 247.576V247.575C-24.4921 247.575 -24.9917 247.755 -25.3596 248.076C-25.7279 248.396 -25.9345 248.831 -25.9345 249.284C-25.9345 249.737 -25.7279 250.171 -25.3596 250.492C-24.9917 250.812 -24.4921 250.992 -23.9717 250.992C-23.4512 250.992 -22.9516 250.812 -22.5837 250.492C-22.2154 250.171 -22.0089 249.737 -22.0089 249.284C-22.0085 248.836 -22.2103 248.407 -22.5705 248.087C-22.9307 247.768 -23.4203 247.584 -23.9345 247.575L-23.9717 247.576ZM-23.9717 249.703C-24.2374 249.703 -24.4532 249.515 -24.4532 249.284C-24.455 249.172 -24.405 249.064 -24.3142 248.986C-24.2234 248.907 -24.0999 248.863 -23.9717 248.865C-23.7059 248.865 -23.4902 249.052 -23.4902 249.284C-23.4931 249.502 -23.685 249.683 -23.9345 249.703H-23.9717ZM-45.009 247.576V247.575C-45.5295 247.575 -46.0287 247.755 -46.397 248.076C-46.7649 248.396 -46.9719 248.831 -46.9719 249.284C-46.9719 249.737 -46.7649 250.171 -46.397 250.492C-46.0287 250.812 -45.5295 250.992 -45.009 250.992C-44.4882 250.992 -43.989 250.812 -43.6211 250.492C-43.2528 250.171 -43.0459 249.737 -43.0459 249.284C-43.0459 248.836 -43.2477 248.407 -43.6079 248.087C-43.9681 247.768 -44.4577 247.584 -44.9719 247.575L-45.009 247.576ZM-45.009 249.703C-45.2733 249.699 -45.4865 249.514 -45.4906 249.284C-45.4906 249.052 -45.2748 248.865 -45.009 248.865C-44.7429 248.865 -44.5275 249.052 -44.5275 249.284C-44.5301 249.502 -44.7223 249.683 -44.9719 249.703H-45.009ZM-26.0757 224.105H-26.0753C-26.0753 223.933 -26.1536 223.77 -26.2925 223.649C-26.4311 223.528 -26.6197 223.46 -26.8163 223.46H-40.3937C-40.8028 223.46 -41.1343 223.748 -41.1343 224.105V228.191H-26.0383L-26.0757 224.105ZM-29.2015 227.399H-38.0089C-38.418 227.399 -38.7495 227.11 -38.7495 226.754C-38.7495 226.398 -38.418 226.109 -38.0089 226.109H-29.1644L-29.2015 227.399ZM-22.8756 229.397H-22.8753C-22.8789 229.151 -23.0429 228.929 -23.2976 228.823H-43.9125C-44.1676 228.929 -44.3311 229.151 -44.3348 229.397V237.861H-22.8533L-22.8756 229.397ZM-26.4017 237.055H-40.8165C-41.2253 237.055 -41.5572 236.767 -41.5572 236.411C-41.5572 236.055 -41.2253 235.766 -40.8165 235.766H-26.3641C-26.1678 235.766 -25.9793 235.834 -25.8403 235.955C-25.7014 236.076 -25.6234 236.239 -25.6234 236.411C-25.6234 236.767 -25.955 237.055 -26.3641 237.055H-26.4017ZM-26.4017 232.755H-40.8165C-41.2253 232.755 -41.5572 232.467 -41.5572 232.111C-41.5572 231.755 -41.2253 231.466 -40.8165 231.466H-26.3641C-26.1678 231.466 -25.9793 231.534 -25.8403 231.655C-25.7014 231.776 -25.6234 231.94 -25.6234 232.111C-25.6234 232.467 -25.955 232.755 -26.3641 232.755H-26.4017Z" fill="black"/>
</g>
</svg>
