<svg width="147" height="125" viewBox="0 0 147 125" fill="none" xmlns="http://www.w3.org/2000/svg">
<path fill-rule="evenodd" clip-rule="evenodd" d="M134.098 72.7951C132.346 73.0173 130.269 73.1839 127.868 73.295C125.499 73.3784 123.065 73.5172 120.566 73.7117C118.068 73.9061 115.764 74.281 113.654 74.8365C111.513 75.3643 109.809 76.1975 108.543 77.3363C107.278 78.475 106.612 79.9888 106.548 81.8775C106.45 83.7662 106.807 85.9187 107.618 88.3351C108.397 90.7238 109.371 93.2096 110.539 95.7927C111.74 98.3757 112.892 100.875 113.995 103.292C115.098 105.736 115.926 107.93 116.477 109.875C117.062 111.819 117.175 113.402 116.818 114.624C116.461 115.818 115.715 116.665 114.579 117.165C113.443 117.638 112.032 117.804 110.344 117.665C108.657 117.526 106.823 117.124 104.844 116.457C102.832 115.763 100.788 114.86 98.7107 113.749C96.6339 112.61 94.6057 111.319 92.6262 109.875C90.6467 108.43 88.7321 106.944 86.8825 105.417C85.0003 103.889 83.1669 102.473 81.3821 101.167C79.5648 99.8617 77.7638 98.8201 75.979 98.0424C74.1942 97.237 72.3932 96.8342 70.576 96.8342C68.7588 96.8342 66.9091 97.3203 65.0269 98.2924C63.1123 99.2923 61.1815 100.625 59.2345 102.292C57.2874 103.986 55.3242 105.847 53.3447 107.875C51.3327 109.902 49.3208 111.916 47.3089 113.916C45.2969 115.916 43.3012 117.721 41.3217 119.332C39.3098 120.915 37.314 122.165 35.3346 123.081C33.3226 123.998 31.3756 124.581 29.4934 124.831C27.5788 125.081 25.7129 125.053 23.8957 124.748C22.1109 124.47 20.4072 123.97 18.7847 123.248C17.1622 122.498 15.6532 121.609 14.2578 120.582C12.83 119.526 11.5482 118.36 10.4124 117.082C9.24421 115.832 8.23824 114.485 7.39452 113.041C6.58325 111.597 5.91802 110.083 5.3988 108.5C4.91204 106.916 4.61999 105.264 4.52264 103.542C4.45774 101.848 4.58754 100.112 4.91204 98.3341C5.269 96.5565 5.85311 94.765 6.66438 92.9596C7.4432 91.1265 8.36804 89.3072 9.43891 87.5019C10.5098 85.6965 11.6293 83.9189 12.7976 82.1691C13.9658 80.4193 15.0691 78.7389 16.1075 77.128C17.146 75.517 18.0221 73.9894 18.736 72.5451C19.4499 71.1008 19.9205 69.7676 20.1476 68.5455C20.4072 67.3512 20.4884 66.2402 20.391 65.2126C20.2937 64.1849 20.1152 63.2405 19.8556 62.3795C19.596 61.5185 19.3526 60.6991 19.1254 59.9214C18.8658 59.1438 18.7036 58.4077 18.6387 57.7134C18.6062 56.9912 18.7198 56.2829 18.9794 55.5886C19.2066 54.8664 19.5149 54.1165 19.9043 53.3388C20.2937 52.5611 20.6344 51.714 20.9265 50.7974C21.1861 49.8808 21.2834 48.8393 21.2185 47.6727C21.1536 46.534 20.7967 45.2286 20.1476 43.7565C19.4662 42.2844 18.4278 40.6596 17.0324 38.882C15.6694 37.0766 14.0956 35.188 12.3108 33.2159C10.5585 31.2717 8.82235 29.3552 7.10247 27.4665C5.38258 25.5779 3.9223 23.8558 2.72162 22.3004C1.52095 20.7173 0.807033 19.4118 0.579879 18.3842C0.320273 17.3843 0.693456 16.7177 1.69943 16.3844C2.7054 16.0511 4.19813 15.9678 6.17762 16.1344C8.18956 16.3011 10.4611 16.5927 12.9923 17.0093C15.5559 17.4259 18.1844 17.8426 20.8778 18.2592C23.5712 18.648 26.1186 18.8841 28.5199 18.9674C30.9537 19.0785 33.0792 18.9536 34.8965 18.5925C36.7137 18.2036 38.2876 17.6481 39.618 16.926C40.9161 16.2316 42.0518 15.4678 43.0254 14.6346C43.9989 13.8013 44.8913 13.0236 45.7025 12.3015C46.5463 11.5793 47.39 11.0099 48.2337 10.5933C49.1099 10.2045 50.0672 10.0517 51.1056 10.135C52.1116 10.2184 53.2311 10.4545 54.4642 10.8433C55.6649 11.2599 56.9467 11.7043 58.3096 12.1765C59.6726 12.6764 61.0842 13.1069 62.5445 13.468C64.0372 13.8291 65.5461 14.0096 67.0713 14.0096C68.629 13.9819 70.2028 13.7041 71.7929 13.1764C73.383 12.6764 75.0055 11.9682 76.6605 11.0516C78.283 10.135 79.9056 9.14903 81.5281 8.09359C83.1831 7.01037 84.8218 5.94104 86.4444 4.88559C88.0994 3.85793 89.7381 2.95524 91.3607 2.17755C93.0156 1.39985 94.6382 0.830468 96.2283 0.469395C97.8183 0.108322 99.3435 -0.0444398 100.804 0.0111099C102.297 0.0944345 103.676 0.372183 104.941 0.844355C106.239 1.31653 107.375 1.96924 108.349 2.80248C109.355 3.63573 110.166 4.64951 110.782 5.84383C111.399 7.01037 111.805 8.31579 111.999 9.76008C112.226 11.2321 112.34 12.7737 112.34 14.3846C112.372 15.9955 112.421 17.6204 112.486 19.2591C112.583 20.87 112.843 22.4115 113.265 23.8836C113.687 25.3557 114.417 26.675 115.455 27.8415C116.461 29.0358 117.857 30.0218 119.641 30.7995C121.459 31.5772 123.487 32.216 125.726 32.716C127.997 33.2159 130.301 33.6464 132.638 34.0075C134.974 34.3408 137.132 34.7019 139.112 35.0907C141.124 35.4796 142.763 35.9656 144.028 36.5489C145.326 37.1044 146.105 37.8127 146.365 38.6737C146.624 39.5347 146.511 40.5346 146.024 41.6734C145.537 42.8121 144.839 44.0342 143.931 45.3397C143.022 46.6728 142.114 48.0616 141.205 49.5059C140.264 50.9224 139.485 52.3806 138.868 53.8804C138.252 55.3525 137.927 56.8107 137.895 58.255C137.862 59.6992 137.992 61.088 138.284 62.4212C138.576 63.7544 138.868 65.0042 139.161 66.1708C139.42 67.3373 139.501 68.3789 139.404 69.2955C139.307 70.212 138.852 70.962 138.041 71.5452C137.197 72.1285 135.883 72.5451 134.098 72.7951Z" fill="#7B61FF"/>
<path fill-rule="evenodd" clip-rule="evenodd" d="M134.098 72.7951C132.346 73.0173 130.269 73.1839 127.868 73.295C125.499 73.3784 123.065 73.5172 120.566 73.7117C118.068 73.9061 115.764 74.281 113.654 74.8365C111.513 75.3643 109.809 76.1975 108.543 77.3363C107.278 78.475 106.612 79.9888 106.548 81.8775C106.45 83.7662 106.807 85.9187 107.618 88.3351C108.397 90.7238 109.371 93.2096 110.539 95.7927C111.74 98.3757 112.892 100.875 113.995 103.292C115.098 105.736 115.926 107.93 116.477 109.875C117.062 111.819 117.175 113.402 116.818 114.624C116.461 115.818 115.715 116.665 114.579 117.165C113.443 117.638 112.032 117.804 110.344 117.665C108.657 117.526 106.823 117.124 104.844 116.457C102.832 115.763 100.788 114.86 98.7107 113.749C96.6339 112.61 94.6057 111.319 92.6262 109.875C90.6467 108.43 88.7321 106.944 86.8825 105.417C85.0003 103.889 83.1669 102.473 81.3821 101.167C79.5648 99.8617 77.7638 98.8201 75.979 98.0424C74.1942 97.237 72.3932 96.8342 70.576 96.8342C68.7588 96.8342 66.9091 97.3203 65.0269 98.2924C63.1123 99.2923 61.1815 100.625 59.2345 102.292C57.2874 103.986 55.3242 105.847 53.3447 107.875C51.3327 109.902 49.3208 111.916 47.3089 113.916C45.2969 115.916 43.3012 117.721 41.3217 119.332C39.3098 120.915 37.314 122.165 35.3346 123.081C33.3226 123.998 31.3756 124.581 29.4934 124.831C27.5788 125.081 25.7129 125.053 23.8957 124.748C22.1109 124.47 20.4072 123.97 18.7847 123.248C17.1622 122.498 15.6532 121.609 14.2578 120.582C12.83 119.526 11.5482 118.36 10.4124 117.082C9.24421 115.832 8.23824 114.485 7.39452 113.041C6.58325 111.597 5.91802 110.083 5.3988 108.5C4.91204 106.916 4.61999 105.264 4.52264 103.542C4.45774 101.848 4.58754 100.112 4.91204 98.3341C5.269 96.5565 5.85311 94.765 6.66438 92.9596C7.4432 91.1265 8.36804 89.3072 9.43891 87.5019C10.5098 85.6965 11.6293 83.9189 12.7976 82.1691C13.9658 80.4193 15.0691 78.7389 16.1075 77.128C17.146 75.517 18.0221 73.9894 18.736 72.5451C19.4499 71.1008 19.9205 69.7676 20.1476 68.5455C20.4072 67.3512 20.4884 66.2402 20.391 65.2126C20.2937 64.1849 20.1152 63.2405 19.8556 62.3795C19.596 61.5185 19.3526 60.6991 19.1254 59.9214C18.8658 59.1438 18.7036 58.4077 18.6387 57.7134C18.6062 56.9912 18.7198 56.2829 18.9794 55.5886C19.2066 54.8664 19.5149 54.1165 19.9043 53.3388C20.2937 52.5611 20.6344 51.714 20.9265 50.7974C21.1861 49.8808 21.2834 48.8393 21.2185 47.6727C21.1536 46.534 20.7967 45.2286 20.1476 43.7565C19.4662 42.2844 18.4278 40.6596 17.0324 38.882C15.6694 37.0766 14.0956 35.188 12.3108 33.2159C10.5585 31.2717 8.82235 29.3552 7.10247 27.4665C5.38258 25.5779 3.9223 23.8558 2.72162 22.3004C1.52095 20.7173 0.807033 19.4118 0.579879 18.3842C0.320273 17.3843 0.693456 16.7177 1.69943 16.3844C2.7054 16.0511 4.19813 15.9678 6.17762 16.1344C8.18956 16.3011 10.4611 16.5927 12.9923 17.0093C15.5559 17.4259 18.1844 17.8426 20.8778 18.2592C23.5712 18.648 26.1186 18.8841 28.5199 18.9674C30.9537 19.0785 33.0792 18.9536 34.8965 18.5925C36.7137 18.2036 38.2876 17.6481 39.618 16.926C40.9161 16.2316 42.0518 15.4678 43.0254 14.6346C43.9989 13.8013 44.8913 13.0236 45.7025 12.3015C46.5463 11.5793 47.39 11.0099 48.2337 10.5933C49.1099 10.2045 50.0672 10.0517 51.1056 10.135C52.1116 10.2184 53.2311 10.4545 54.4642 10.8433C55.6649 11.2599 56.9467 11.7043 58.3096 12.1765C59.6726 12.6764 61.0842 13.1069 62.5445 13.468C64.0372 13.8291 65.5461 14.0096 67.0713 14.0096C68.629 13.9819 70.2028 13.7041 71.7929 13.1764C73.383 12.6764 75.0055 11.9682 76.6605 11.0516C78.283 10.135 79.9056 9.14903 81.5281 8.09359C83.1831 7.01037 84.8218 5.94104 86.4444 4.88559C88.0994 3.85793 89.7381 2.95524 91.3607 2.17755C93.0156 1.39985 94.6382 0.830468 96.2283 0.469395C97.8183 0.108322 99.3435 -0.0444398 100.804 0.0111099C102.297 0.0944345 103.676 0.372183 104.941 0.844355C106.239 1.31653 107.375 1.96924 108.349 2.80248C109.355 3.63573 110.166 4.64951 110.782 5.84383C111.399 7.01037 111.805 8.31579 111.999 9.76008C112.226 11.2321 112.34 12.7737 112.34 14.3846C112.372 15.9955 112.421 17.6204 112.486 19.2591C112.583 20.87 112.843 22.4115 113.265 23.8836C113.687 25.3557 114.417 26.675 115.455 27.8415C116.461 29.0358 117.857 30.0218 119.641 30.7995C121.459 31.5772 123.487 32.216 125.726 32.716C127.997 33.2159 130.301 33.6464 132.638 34.0075C134.974 34.3408 137.132 34.7019 139.112 35.0907C141.124 35.4796 142.763 35.9656 144.028 36.5489C145.326 37.1044 146.105 37.8127 146.365 38.6737C146.624 39.5347 146.511 40.5346 146.024 41.6734C145.537 42.8121 144.839 44.0342 143.931 45.3397C143.022 46.6728 142.114 48.0616 141.205 49.5059C140.264 50.9224 139.485 52.3806 138.868 53.8804C138.252 55.3525 137.927 56.8107 137.895 58.255C137.862 59.6992 137.992 61.088 138.284 62.4212C138.576 63.7544 138.868 65.0042 139.161 66.1708C139.42 67.3373 139.501 68.3789 139.404 69.2955C139.307 70.212 138.852 70.962 138.041 71.5452C137.197 72.1285 135.883 72.5451 134.098 72.7951Z" fill="#9EB0D0"/>
<path fill-rule="evenodd" clip-rule="evenodd" d="M134.098 72.7951C132.346 73.0173 130.269 73.1839 127.868 73.295C125.499 73.3784 123.065 73.5172 120.566 73.7117C118.068 73.9061 115.764 74.281 113.654 74.8365C111.513 75.3643 109.809 76.1975 108.543 77.3363C107.278 78.475 106.612 79.9888 106.548 81.8775C106.45 83.7662 106.807 85.9187 107.618 88.3351C108.397 90.7238 109.371 93.2096 110.539 95.7927C111.74 98.3757 112.892 100.875 113.995 103.292C115.098 105.736 115.926 107.93 116.477 109.875C117.062 111.819 117.175 113.402 116.818 114.624C116.461 115.818 115.715 116.665 114.579 117.165C113.443 117.638 112.032 117.804 110.344 117.665C108.657 117.526 106.823 117.124 104.844 116.457C102.832 115.763 100.788 114.86 98.7107 113.749C96.6339 112.61 94.6057 111.319 92.6262 109.875C90.6467 108.43 88.7321 106.944 86.8825 105.417C85.0003 103.889 83.1669 102.473 81.3821 101.167C79.5648 99.8617 77.7638 98.8201 75.979 98.0424C74.1942 97.237 72.3932 96.8342 70.576 96.8342C68.7588 96.8342 66.9091 97.3203 65.0269 98.2924C63.1123 99.2923 61.1815 100.625 59.2345 102.292C57.2874 103.986 55.3242 105.847 53.3447 107.875C51.3327 109.902 49.3208 111.916 47.3089 113.916C45.2969 115.916 43.3012 117.721 41.3217 119.332C39.3098 120.915 37.314 122.165 35.3346 123.081C33.3226 123.998 31.3756 124.581 29.4934 124.831C27.5788 125.081 25.7129 125.053 23.8957 124.748C22.1109 124.47 20.4072 123.97 18.7847 123.248C17.1622 122.498 15.6532 121.609 14.2578 120.582C12.83 119.526 11.5482 118.36 10.4124 117.082C9.24421 115.832 8.23824 114.485 7.39452 113.041C6.58325 111.597 5.91802 110.083 5.3988 108.5C4.91204 106.916 4.61999 105.264 4.52264 103.542C4.45774 101.848 4.58754 100.112 4.91204 98.3341C5.269 96.5565 5.85311 94.765 6.66438 92.9596C7.4432 91.1265 8.36804 89.3072 9.43891 87.5019C10.5098 85.6965 11.6293 83.9189 12.7976 82.1691C13.9658 80.4193 15.0691 78.7389 16.1075 77.128C17.146 75.517 18.0221 73.9894 18.736 72.5451C19.4499 71.1008 19.9205 69.7676 20.1476 68.5455C20.4072 67.3512 20.4884 66.2402 20.391 65.2126C20.2937 64.1849 20.1152 63.2405 19.8556 62.3795C19.596 61.5185 19.3526 60.6991 19.1254 59.9214C18.8658 59.1438 18.7036 58.4077 18.6387 57.7134C18.6062 56.9912 18.7198 56.2829 18.9794 55.5886C19.2066 54.8664 19.5149 54.1165 19.9043 53.3388C20.2937 52.5611 20.6344 51.714 20.9265 50.7974C21.1861 49.8808 21.2834 48.8393 21.2185 47.6727C21.1536 46.534 20.7967 45.2286 20.1476 43.7565C19.4662 42.2844 18.4278 40.6596 17.0324 38.882C15.6694 37.0766 14.0956 35.188 12.3108 33.2159C10.5585 31.2717 8.82235 29.3552 7.10247 27.4665C5.38258 25.5779 3.9223 23.8558 2.72162 22.3004C1.52095 20.7173 0.807033 19.4118 0.579879 18.3842C0.320273 17.3843 0.693456 16.7177 1.69943 16.3844C2.7054 16.0511 4.19813 15.9678 6.17762 16.1344C8.18956 16.3011 10.4611 16.5927 12.9923 17.0093C15.5559 17.4259 18.1844 17.8426 20.8778 18.2592C23.5712 18.648 26.1186 18.8841 28.5199 18.9674C30.9537 19.0785 33.0792 18.9536 34.8965 18.5925C36.7137 18.2036 38.2876 17.6481 39.618 16.926C40.9161 16.2316 42.0518 15.4678 43.0254 14.6346C43.9989 13.8013 44.8913 13.0236 45.7025 12.3015C46.5463 11.5793 47.39 11.0099 48.2337 10.5933C49.1099 10.2045 50.0672 10.0517 51.1056 10.135C52.1116 10.2184 53.2311 10.4545 54.4642 10.8433C55.6649 11.2599 56.9467 11.7043 58.3096 12.1765C59.6726 12.6764 61.0842 13.1069 62.5445 13.468C64.0372 13.8291 65.5461 14.0096 67.0713 14.0096C68.629 13.9819 70.2028 13.7041 71.7929 13.1764C73.383 12.6764 75.0055 11.9682 76.6605 11.0516C78.283 10.135 79.9056 9.14903 81.5281 8.09359C83.1831 7.01037 84.8218 5.94104 86.4444 4.88559C88.0994 3.85793 89.7381 2.95524 91.3607 2.17755C93.0156 1.39985 94.6382 0.830468 96.2283 0.469395C97.8183 0.108322 99.3435 -0.0444398 100.804 0.0111099C102.297 0.0944345 103.676 0.372183 104.941 0.844355C106.239 1.31653 107.375 1.96924 108.349 2.80248C109.355 3.63573 110.166 4.64951 110.782 5.84383C111.399 7.01037 111.805 8.31579 111.999 9.76008C112.226 11.2321 112.34 12.7737 112.34 14.3846C112.372 15.9955 112.421 17.6204 112.486 19.2591C112.583 20.87 112.843 22.4115 113.265 23.8836C113.687 25.3557 114.417 26.675 115.455 27.8415C116.461 29.0358 117.857 30.0218 119.641 30.7995C121.459 31.5772 123.487 32.216 125.726 32.716C127.997 33.2159 130.301 33.6464 132.638 34.0075C134.974 34.3408 137.132 34.7019 139.112 35.0907C141.124 35.4796 142.763 35.9656 144.028 36.5489C145.326 37.1044 146.105 37.8127 146.365 38.6737C146.624 39.5347 146.511 40.5346 146.024 41.6734C145.537 42.8121 144.839 44.0342 143.931 45.3397C143.022 46.6728 142.114 48.0616 141.205 49.5059C140.264 50.9224 139.485 52.3806 138.868 53.8804C138.252 55.3525 137.927 56.8107 137.895 58.255C137.862 59.6992 137.992 61.088 138.284 62.4212C138.576 63.7544 138.868 65.0042 139.161 66.1708C139.42 67.3373 139.501 68.3789 139.404 69.2955C139.307 70.212 138.852 70.962 138.041 71.5452C137.197 72.1285 135.883 72.5451 134.098 72.7951Z" stroke="#7B61FF"/>
</svg>
